<?xml version="1.0" standalone="no"?>
<!DOCTYPE svg PUBLIC "-//W3C//DTD SVG 1.1//EN" "http://www.w3.org/Graphics/SVG/1.1/DTD/svg11.dtd" >
<svg xmlns="http://www.w3.org/2000/svg">
<metadata></metadata>
<defs>
<font id="emona_condregular" horiz-adv-x="899" >
<font-face units-per-em="2048" ascent="1638" descent="-410" />
<missing-glyph horiz-adv-x="378" />
<glyph horiz-adv-x="2048" />
<glyph horiz-adv-x="2048" />
<glyph unicode="&#xd;" horiz-adv-x="378" />
<glyph unicode=" "  horiz-adv-x="378" />
<glyph unicode="&#x09;" horiz-adv-x="378" />
<glyph unicode="&#xa0;" horiz-adv-x="378" />
<glyph unicode="!" horiz-adv-x="509" d="M147 127q0 55 27 96q29 49 80 49q53 0 82 -45t29 -100q0 -57 -27 -98q-31 -47 -84 -47q-51 0 -82 49q-25 41 -25 96zM150 1300q-6 55 20 105q29 57 84 57t88 -59q26 -50 20 -107l-81 -850h-43z" />
<glyph unicode="&#x22;" horiz-adv-x="690" d="M121 1333v10q0 109 80 109t80 -119q0 -47 -18.5 -220t-31 -216t-28.5 -43q-18 0 -29 64q-16 104 -35 206q-18 123 -18 209zM408 1333q-4 43 17 81t64 38q80 0 80 -109v-10q0 -115 -45 -438q-6 -41 -32 -41q-16 0 -29 64q-37 205 -55 415z" />
<glyph unicode="#" horiz-adv-x="1368" d="M49 418l19 110h276l92 332h-330l17 113h342l129 442h117l-129 -442h358l129 442h117l-129 -442h258l-19 -113h-268l-90 -332h319l-18 -110h-332l-125 -441h-118l127 441h-359l-127 -441h-119l127 441h-264zM461 528h360l90 332h-358z" />
<glyph unicode="$" d="M68 391h77q20 -160 70 -235q68 -106 209 -107v588q-193 96 -248 151q-98 96 -98 273q0 166 92 279.5t254 123.5v72h65l3 -72q139 -8 288 -80l6 -331h-71q-18 141 -56 215q-55 109 -170 121v-523q184 -76 263 -159q94 -107 94 -291q0 -176 -92 -289q-94 -119 -265 -143 v-201h-65v194q-184 0 -352 82zM233 1151q0 -94 54 -156q43 -49 137 -96v492q-94 -8 -142.5 -75t-48.5 -165zM489 55q205 40 205 269q0 176 -205 280v-549z" />
<glyph unicode="%" horiz-adv-x="1587" d="M133 1075q0 147 66 244q76 111 217 111q137 0 209 -113q61 -95 61 -240q0 -147 -65 -243q-76 -115 -215 -115t-211 115q-61 94 -62 241zM268 1067q0 -291 140 -291q143 0 143 299q0 295 -139 295q-143 0 -144 -303zM403 -94l672 1589h82l-672 -1589h-82zM883 336 q0 145 65 242q76 111 215 110q137 0 209 -110q62 -97 62 -240q0 -147 -66 -246q-74 -115 -213 -115t-211 115q-61 96 -61 244zM1018 324q0 -289 139 -289q141 0 141 301q0 293 -139 293q-141 0 -141 -305z" />
<glyph unicode="&#x26;" horiz-adv-x="1169" d="M63 334q0 229 265 436q-98 221 -99 317q0 123 76 215.5t197 92.5q100 0 156.5 -54.5t56.5 -152.5q0 -104 -66 -197q-37 -51 -145 -155q35 -84 123 -226q96 -154 129 -225q86 186 86 317q0 106 -158 107v59h418v-59q-78 -6 -118 -40t-71 -112q-37 -113 -125 -329 q27 -55 54 -109q41 -63 94 -63q90 0 137 172l12 4q27 -119 27 -176q-39 -61 -112.5 -110.5t-141.5 -49.5q-59 0 -108 49q-25 25 -72 100q-129 -168 -320 -168q-133 0 -217 115q-78 102 -78 242zM223 440q0 -106 66 -227q76 -137 174 -137q94 0 182 123q-37 72 -147 258 q-96 162 -142 260q-133 -104 -133 -277zM379 1182q0 -98 92 -295q139 114 139 284q0 162 -112 162q-59 0 -89 -45t-30 -106z" />
<glyph unicode="'" horiz-adv-x="372" d="M106 1333v10q0 43 22 76t60 33q37 0 57.5 -34t20.5 -75v-10q0 -221 -47 -438q-8 -41 -31 -41t-28 64q-4 39 -33 206q-20 129 -21 209z" />
<glyph unicode="(" horiz-adv-x="610" d="M131 545q0 797 426 962l12 -59q-178 -106 -235 -410q-33 -166 -33 -497q0 -313 33 -488q57 -301 221 -407l-10 -70q-414 190 -414 969z" />
<glyph unicode=")" horiz-adv-x="610" d="M41 -367q174 104 233 412q33 174 33 498q0 332 -31 495q-57 303 -235 410l12 59q426 -163 426 -964q0 -799 -426 -969z" />
<glyph unicode="*" horiz-adv-x="772" d="M102 1147q0 20 27 75.5t45 55.5q23 0 94.5 -74t93.5 -82q-4 39 -30 140q-25 90 -25 135q0 37 82 37q66 0 66 -31q0 -45 -22.5 -139.5t-22.5 -141.5q23 8 98 84q68 72 90 72q16 0 43 -55.5t27 -75.5q0 -41 -107 -62q-23 -4 -139 -14q4 -6 104 -102q78 -74 78 -103 q0 -18 -40 -63t-58 -45q-33 0 -72 123q-25 78 -47 155l-6 -6v-2q-23 -76 -47 -151q-39 -119 -72 -119q-16 0 -56 45t-40 63q0 29 78 103l104 100q-123 10 -141 14q-104 18 -105 64z" />
<glyph unicode="+" horiz-adv-x="1183" d="M61 535v112h474v477h110v-477h477v-112h-475v-478h-112v478h-474z" />
<glyph unicode="," horiz-adv-x="450" d="M121 127q0 57 26 98q31 49 84 49q66 0 101 -77q26 -60 26 -136q0 -256 -213 -397l-24 53q156 111 155 275q-10 10 -26 6q-27 -4 -35 -2q-43 0 -70 47q-25 39 -24 84z" />
<glyph unicode="-" horiz-adv-x="589" d="M72 414v159h446v-159h-446z" />
<glyph unicode="." horiz-adv-x="450" d="M115 127q0 57 26 98q29 49 82 49q51 0 80 -46t29 -101t-27 -96q-29 -49 -82 -49t-84 49q-25 39 -24 96z" />
<glyph unicode="/" horiz-adv-x="618" d="M18 -25l480 1532h118l-481 -1532h-117z" />
<glyph unicode="0" d="M70 676q0 698 379 698q380 0 380 -698t-380 -699q-379 0 -379 699zM270 676q0 -276 13 -365q35 -266 166 -266q133 0 167 268q13 89 13 365t-13 364q-35 264 -167 265q-131 0 -166 -267q-12 -88 -13 -364z" />
<glyph unicode="1" d="M164 965v108q186 129 285 297h110v-1235q0 -72 176 -72v-65q-137 4 -276 4t-277 -4v63q94 4 115 9q74 14 74 65v1022q-63 -68 -207 -192z" />
<glyph unicode="2" d="M92 -2v115q111 131 221 264q133 166 199 297q88 172 88 325q0 291 -178 291q-193 0 -193 -293q0 -133 64 -209l-47 -30q-53 39 -86 119q-31 72 -31 141q0 160 92 258t250 98t244 -99t86 -259t-154 -377q-82 -117 -246 -283q-51 -49 -147 -157h342q90 0 131 57 q27 39 43 141h37v-397z" />
<glyph unicode="3" d="M96 313q0 47 49 47q29 0 56 -77q39 -106 63 -144q53 -78 148 -78q193 -2 192 351q0 147 -22 215q-37 117 -150 116q-59 0 -139 -26l4 65q285 123 285 299q0 82 -49.5 135.5t-129.5 53.5q-96 0 -149 -88q-45 -72 -49 -176l-80 10q4 150 86 248q88 106 235 106 q129 0 216 -65q98 -72 98 -199q0 -141 -68 -207q-49 -47 -194 -90q307 -2 307 -395q0 -197 -84 -310q-92 -127 -281 -127q-252 0 -323 236q-20 66 -21 100z" />
<glyph unicode="4" d="M68 408l2 94q166 287 471 868h135v-854h121v-108h-121v-273q0 -72 155 -72v-65h-489v65q154 0 154 72v273h-428zM152 516h342v629q-55 -104 -228 -418q-35 -72 -114 -211z" />
<glyph unicode="5" d="M94 326q0 12 17.5 28.5t29.5 16.5q29 0 49 -76q31 -104 56 -143q49 -76 147 -76q113 0 168 131q41 98 41 229q0 379 -192 379q-143 0 -193 -205l-61 15l63 727q43 0 174 -2q125 -2 193 -2q109 0 178 6q0 -90 -54.5 -148.5t-144.5 -58.5h-295l-34 -363q90 125 237 125 q180 0 264 -147q68 -118 68 -313q0 -199 -84 -324q-98 -147 -287 -148q-248 0 -319 242q-20 70 -21 107z" />
<glyph unicode="6" d="M84 655q0 719 405 719q133 0 208 -70.5t75 -203.5q0 -31 -22.5 -50.5t-51.5 -19.5q-66 0 -79 67.5t-25 135.5q-23 70 -102 70q-141 0 -189 -213q-23 -109 -22 -324l2 2q70 70 96 88q55 37 125 37q166 0 248 -141q65 -115 65 -295q0 -199 -82 -326q-96 -154 -280 -154 q-233 0 -318 242q-53 150 -53 436zM281 457q0 -412 180 -412q162 0 162 385q0 381 -166 381q-176 0 -176 -354z" />
<glyph unicode="7" d="M82 946l57 406h660l20 -62q-315 -639 -422 -1290q-111 6 -202 -2q117 459 475 1153h-443q-43 0 -73 -90q-23 -72 -23 -125z" />
<glyph unicode="8" d="M78 369q0 279 219 354l-8 6q-166 125 -166 297q0 156 91 252t245 96q143 0 233 -84t90 -227q0 -217 -178 -293v-2q219 -88 219 -375q0 -182 -94 -295q-98 -121 -276 -121q-168 0 -271.5 112t-103.5 280zM244 356q0 -311 209 -311q104 0 159 94q43 78 43 193 q0 129 -69.5 226t-190.5 128l-4 -2q-147 -74 -147 -328zM283 1077q0 -215 225 -278q121 43 121 254q0 254 -174 254q-88 0 -133 -74q-39 -63 -39 -156z" />
<glyph unicode="9" d="M82 893q0 201 82 328q96 154 285 153q227 0 313 -235q55 -149 55 -428q0 -309 -63 -475q-96 -258 -353 -259q-119 0 -195.5 68t-76.5 186q0 33 20.5 60.5t51.5 27.5q70 0 82 -68.5t20 -133.5q23 -72 111 -72q137 0 182 215q23 106 22 322v-2q-2 0 -2 -2 q-78 -123 -229 -123q-152 0 -235 149q-70 123 -70 289zM276 920q0 -381 166 -381q115 0 156 133q23 75 23 227q0 403 -177 404q-111 0 -147 -148q-20 -78 -21 -235z" />
<glyph unicode=":" horiz-adv-x="450" d="M121 127q0 53 26 96q31 51 82 51t80 -46t29 -101t-27 -96q-31 -49 -82 -49q-49 0 -82 49q-27 43 -26 96zM121 815q0 53 26 96q31 51 82 52q51 0 80 -46.5t29 -101.5t-27 -96q-31 -49 -82 -49q-49 0 -82 49q-27 43 -26 96z" />
<glyph unicode=";" horiz-adv-x="450" d="M121 127q0 57 26 98q33 49 86 49q66 0 101 -77q24 -60 24 -136q0 -256 -213 -397l-24 53q160 111 155 275q-8 10 -26 6q-35 -4 -31 -4q-43 0 -74 47q-25 41 -24 86zM125 817q0 55 27 96q31 49 81 50q53 0 81 -45.5t28 -100.5q0 -57 -27 -98q-29 -49 -82 -49q-51 0 -81 49 q-27 43 -27 98z" />
<glyph unicode="&#x3c;" horiz-adv-x="1196" d="M61 537v106l1057 475v-125l-907 -407l907 -398v-118z" />
<glyph unicode="=" horiz-adv-x="1124" d="M61 356v105h990v-105h-990zM61 715v106h990v-106h-990z" />
<glyph unicode="&#x3e;" horiz-adv-x="1220" d="M82 70v118l909 396l-909 409v125l1059 -477v-106z" />
<glyph unicode="?" horiz-adv-x="729" d="M96 1182q0 125 76 202.5t201 77.5q150 0 229 -100q72 -90 72 -246q0 -113 -45 -182q-37 -57 -137 -127q-35 -23 -95 -72q-16 -20 -30 -280l-68 -17q-4 135 -4 203q0 100 6 115q23 55 78 92q63 41 82 72q37 63 37 200q0 281 -133 281q-80 0 -101 -80q-8 -74 -16 -150 q-14 -80 -76 -79q-76 0 -76 90zM225 129q0 53 27 96q29 51 80 51t84 -49q26 -45 26 -98t-26 -96q-33 -49 -84 -49q-49 0 -80 49q-27 43 -27 96z" />
<glyph unicode="@" horiz-adv-x="1941" d="M121 489q0 397 280.5 673t677.5 276q324 0 527 -181q211 -186 211 -505q0 -240 -136 -445q-152 -229 -381 -229q-176 0 -176 176q0 29 4 68l-2 4q-170 -250 -364 -250q-102 0 -157.5 73.5t-55.5 178.5q2 225 143 430q158 227 373 227q162 0 199 -166l4 4l24 92l148 3 l-156 -556q-16 -59 -16 -106q0 -37 16 -74q23 -47 59 -47q111 0 228 139q92 111 141 239t49 255q0 276 -196 451q-188 168 -469 167q-381 0 -629 -274q-242 -266 -242 -651q0 -346 230 -559q223 -207 571 -207q449 0 711 381l41 -19q-121 -199 -324 -309t-436 -110 q-383 0 -637 231q-260 240 -260 620zM700 334q0 -162 134 -162q158 0 280 221q109 195 109 369q0 70 -39 124t-107 54q-141 0 -266 -238q-111 -211 -111 -368z" />
<glyph unicode="A" horiz-adv-x="1189" d="M27 -2v65q33 2 67 7q45 6 60 22q20 25 202 651q100 352 201 705q14 -2 45 -2q29 0 43 2l354 -1270q11 -39 69 -79q53 -36 91 -36h8v-65q-125 6 -256 6q-129 0 -256 -6v65q45 4 88 9q70 8 70 30q0 10 -119 447h-332q-31 -115 -61 -230q-51 -190 -51 -210q0 -35 151 -46 v-63q-90 5 -175 5q-102 0 -199 -7zM383 623h295l-141 522z" />
<glyph unicode="B" horiz-adv-x="1095" d="M49 -2v65q152 0 152 72v1170q0 72 -128 72q-11 0 -24 -1l2 66h555q174 0 254 -78t80 -254q0 -283 -260 -330v-8q317 -35 317 -375q0 -190 -107.5 -294.5t-297.5 -104.5h-543zM393 70h109q286 0 286 340q0 156 -43 229q-55 96 -198 96h-154v-665zM393 809h150 q194 0 194 276q0 139 -35 203q-47 86 -172 86q-70 0 -137 -6v-559z" />
<glyph unicode="C" horiz-adv-x="1134" d="M76 719q0 326 121 516q147 231 452 231q176 0 398 -96v-364h-72q-27 197 -74 274q-74 115 -246 115q-362 0 -362 -664q0 -285 49 -434q84 -250 307 -250q299 0 324 424h76v-387q-82 -47 -204 -77t-220 -30q-297 0 -437 234q-112 188 -112 502v6z" />
<glyph unicode="D" horiz-adv-x="1249" d="M35 -2v65q150 0 149 72v1170q0 71 -145 71h-4v66q92 -4 220 -4h89q311 4 309 4q510 0 510 -709q0 -344 -100 -516q-131 -219 -449 -219q-580 0 -579 0zM377 72q57 -4 172 -4q242 0 334 211q63 143 63 426q0 281 -49 428q-82 241 -303 241h-2q-160 0 -215 -8v-1294z" />
<glyph unicode="E" horiz-adv-x="1069" d="M41 -2v65q152 0 152 74v1166q0 73 -148 73h-4v66q23 -2 334 -2q537 0 583 2l3 -404h-72q-20 213 -77.5 273.5t-264.5 60.5h-164v-588q23 -2 68 -2q129 0 174 64q34 50 34 182v8h62v-587l-64 2q-6 150 -30 192q-39 66 -176 66q-45 0 -68 -2v-635h235q168 0 234 112 q45 76 61 271h62v-457q-39 2 -596 2q-315 0 -338 -2z" />
<glyph unicode="F" horiz-adv-x="1003" d="M47 -2v65q152 0 152 72v1165q0 74 -152 74v66h924v-404h-70q-23 217 -76 273q-59 61 -268 61h-164v-594h109q115 0 149 76q20 43 23 180h63v-590l-63 2q-8 164 -27 197q-33 61 -174 61h-80v-565q0 -74 154 -74l-2 -65q-121 6 -248 6q-129 0 -250 -6z" />
<glyph unicode="G" horiz-adv-x="1249" d="M82 715q0 324 127 520q152 231 459 231q182 0 397 -94v-368h-72q-16 184 -78 276q-80 115 -249 115q-369 0 -369 -684q0 -274 53 -422q82 -240 303 -240q137 0 195 68q53 61 53 198v127q0 80 -24.5 108t-100.5 28v63h447v-61q-131 -6 -131 -76v-404q-254 -123 -461 -123 q-295 0 -434 232q-115 188 -115 506z" />
<glyph unicode="H" horiz-adv-x="1282" d="M41 -2v65q152 0 152 72v1170q0 71 -148 71h-4v66q121 -6 248 -6t248 6v-66q-154 0 -154 -71v-523h512v523q0 71 -146 71h-4v66q121 -6 248 -6t248 6v-66q-154 0 -154 -71v-1170q0 -72 154 -72v-65q-121 6 -248 6t-248 -6v65q150 0 150 72v576h-512v-576q0 -72 154 -72 v-65q-121 6 -248 6t-248 -6z" />
<glyph unicode="I" horiz-adv-x="595" d="M47 -2v65q154 0 154 72v1170q0 71 -150 71h-4v66q123 -6 252 -6q127 0 250 6v-66q-154 0 -154 -71v-1170q0 -72 154 -72v-65q-75 4 -178 4h-72z" />
<glyph unicode="J" horiz-adv-x="675" d="M141 1442q123 -6 250 -6t250 6v-66q-152 0 -152 -71v-1295q0 -199 -67 -309q-76 -123 -258 -180l-17 51q106 51 136 174q12 55 12 231v1326q0 73 -148 73h-4z" />
<glyph unicode="K" horiz-adv-x="1181" d="M47 1442q121 -6 250 -6t250 6v-66q-152 0 -152 -71v-574q51 53 90 103q25 31 177.5 273.5t152.5 248.5q0 30 -73 30h-5v56q82 -6 170 -6q86 0 168 6l-2 -64q-94 -8 -104 -10q-57 -14 -86 -53q-25 -14 -291 -438l424 -750q35 -61 158 -66v-63q-32 2 -112 2t-210 -2 q-84 160 -254 477q-43 86 -143 246l-60 -68v-499q0 -90 152 -91l2 -65q-121 6 -250 6t-250 -6v65q152 0 152 72v1168q0 73 -148 73h-4z" />
<glyph unicode="L" horiz-adv-x="1050" d="M49 1442q121 -6 248 -6t248 6v-66q-150 0 -150 -71v-1235h244q166 0 231 125q37 74 58 278h69v-475q-39 2 -600 2q-324 0 -346 -2v65q152 0 152 72v1170q0 71 -148 71h-4z" />
<glyph unicode="M" horiz-adv-x="1540" d="M39 -2v65q152 0 151 72v1168q0 73 -147 73h-4l2 66q84 -6 176 -6t176 6l381 -1112l385 1112q84 -6 174 -6t172 6v-66q-156 0 -155 -71v-1170q0 -72 155 -72v-65q-119 6 -254 6q-137 0 -256 -6v65q166 0 166 72v1129l-440 -1276l-35 -2l-430 1269v-1120q0 -72 164 -72v-67 q-110 8 -212 8q-88 0 -169 -6z" />
<glyph unicode="N" horiz-adv-x="1265" d="M39 -2v65q150 0 149 72v1170q0 71 -145 71h-4v68q100 -8 193 -8q80 0 155 6l629 -1086v949q0 71 -160 71h-4v68q98 -7 202 -7q87 0 177 5v-66q-147 0 -148 -71l2 -1313q-29 0 -86 -4l-745 1276v-1129q0 -72 164 -72l-2 -67q-109 8 -210 8q-87 0 -167 -6z" />
<glyph unicode="O" horiz-adv-x="1286" d="M82 723q0 743 559 743q557 0 557 -743q0 -745 -557 -746q-303 0 -444 232q-115 188 -115 514zM301 723q0 -281 45 -426q78 -250 295 -250t295 250q45 143 45 426t-45 426q-78 248 -295 248t-295 -248q-45 -145 -45 -426z" />
<glyph unicode="P" horiz-adv-x="1011" d="M41 1376v66q86 -4 206 -4h83q289 4 286 4q342 0 342 -385q0 -289 -159 -371q-96 -49 -392 -49h-24v-502q0 -72 160 -72v-67q-145 8 -279 8q-115 0 -221 -6v65q150 0 150 72v1170q0 71 -148 71h-4zM383 707q14 -2 28.5 -2t28.5 2q186 0 252 77q58 70 58 265q0 160 -37 229 q-51 96 -193 96h-137v-667z" />
<glyph unicode="Q" horiz-adv-x="1259" d="M82 723q0 324 115 512q141 231 444 231q557 0 557 -743q0 -653 -434 -735q20 -53 79.5 -102.5t112.5 -49.5q66 0 134 53l22 -79q-94 -63 -176 -64q-98 0 -199 68q-106 74 -125 166q-289 6 -424 241q-106 188 -106 502zM301 723q0 -281 45 -426q78 -250 295 -250t295 248 q45 143 45 428q0 283 -45 426q-78 248 -295 248t-295 -248q-45 -145 -45 -426z" />
<glyph unicode="R" horiz-adv-x="1112" d="M45 1442h512q199 0 281 -64q96 -74 96 -268q0 -307 -287 -354v-6q117 -41 205 -195q72 -125 100 -272q20 -106 33 -136q31 -72 100 -81q27 -4 31 -5v-63q-62 4 -113.5 4t-91.5 -4q-94 35 -143 152q-20 49 -55 210q-80 362 -267 363h-26q-18 -2 -29 -2v-586q0 -72 135 -72 h21l2 -65q-123 6 -250 6q-129 0 -252 -6v65h8q143 0 144 72v1170q0 71 -148 71h-4zM391 784l29 -2q20 -2 39 -2q270 0 270 305q0 143 -41 207q-53 82 -186 82q-37 0 -111 -4v-586z" />
<glyph unicode="S" horiz-adv-x="956" d="M98 391h78q23 -164 74 -239q70 -102 217 -103q121 0 189.5 77t68.5 200q0 205 -301 352q-166 82 -231 156q-86 98 -87 262q0 164 110 267t273 103q156 0 324 -82l6 -331h-74q-20 158 -61 231q-63 109 -199 109q-106 0 -162.5 -66.5t-56.5 -177.5q0 -133 158 -234 q147 -86 295 -174q160 -119 160 -295q0 -207 -111 -333q-119 -135 -322 -136q-178 0 -342 82z" />
<glyph unicode="T" horiz-adv-x="1124" d="M49 1018v422h1026v-422h-71q-16 217 -72 278q-63 70 -273 70v-1231q0 -72 166 -72l-2 -65q-129 4 -262 4t-262 -4v65q168 0 168 72v1231h-109q-139 0 -192 -111q-35 -72 -45 -237h-72z" />
<glyph unicode="U" horiz-adv-x="1265" d="M39 1442q121 -6 250 -6t250 6v-66q-160 0 -160 -71v-867q0 -186 55 -274q70 -109 244 -109q190 0 270 113q68 94 68 295v842q0 71 -167 71h-5v66q96 -4 194 -4t193 4v-66q-145 0 -146 -71v-850q0 -246 -105.5 -359.5t-348.5 -113.5q-238 0 -340.5 101t-102.5 339v883 q0 71 -143 71h-4z" />
<glyph unicode="V" horiz-adv-x="1124" d="M14 1378v62q106 -6 220 -6q133 0 278 8v-62l-86 -8q-68 -8 -68 -31q0 -14 37 -151l240 -897q74 262 127 463q147 542 147 586q0 17 -63 28q-41 4 -84 8v64q100 -5 188 -5t164 5v-64q-125 -20 -166 -164l-346 -1228h-84l-340 1247q-8 33 -40 82t-53.5 56t-70.5 7z" />
<glyph unicode="W" horiz-adv-x="1656" d="M4 1442q117 -6 240 -6q121 0 237 6v-62q-139 -12 -139 -38q0 -43 211 -1023l256 1121h178l240 -1118q215 930 215 983q0 47 -45 61q-12 4 -86 12v66q87 -7 180 -7q78 0 160 5v-64q-43 0 -82 -26.5t-49 -67.5l-320 -1298h-92l-281 1280l-290 -1280h-95l-303 1292 q-23 96 -133 100z" />
<glyph unicode="X" horiz-adv-x="1173" d="M31 63q84 14 92 17q55 14 74 47l303 563l-244 524q-43 94 -96 132q-45 31 -117 32l2 64q123 -6 258 -6t258 6v-64q-43 -2 -88 -4q-66 -6 -65 -33q0 -10 210 -446q219 438 220 459q0 24 -119 24h-10l2 62q88 -5 171 -5q100 0 195 7l2 -66q-141 -12 -186 -98l-242 -449 l340 -700q29 -59 152 -66v-65q-125 6 -256 6q-129 0 -256 -6v65q141 0 141 31q0 27 -61 154l-183 375q-254 -528 -254 -533q0 -12 142 -27v-65q-94 4 -191 4q-98 0 -192 -4z" />
<glyph unicode="Y" horiz-adv-x="1099" d="M4 1442q131 -6 266 -6q133 0 265 6v-66q-43 -2 -86 -6q-70 -8 -70 -27q0 -6 51 -118l209 -457l182 434q57 137 58 141q0 35 -140 35v64q86 -6 179 -6q90 0 176 6v-64q-127 -23 -174 -125l-211 -462q-53 -117 -54 -144v-512q0 -72 164 -72v-65q-127 6 -258 6 q-133 0 -260 -6v65q164 0 164 72v498q0 49 -62 176l-194 401q-74 154 -203 168z" />
<glyph unicode="Z" horiz-adv-x="1097" d="M51 -2l711 1370h-297q-145 0 -205 -100q-43 -72 -53 -236h-68v408h873l-715 -1368h350q176 0 244 116q47 82 57 283h74v-473q-41 2 -483 2q-446 0 -488 -2z" />
<glyph unicode="[" horiz-adv-x="561" d="M176 -383v1878h336v-65h-184v-1747h184v-66h-336z" />
<glyph unicode="\" horiz-adv-x="823" d="M57 1507h136l573 -1519h-131z" />
<glyph unicode="]" horiz-adv-x="561" d="M49 -317h180v1747h-180v65h332v-1878h-332v66z" />
<glyph unicode="^" horiz-adv-x="964" d="M96 629l326 788h121l323 -788h-129l-256 612l-254 -612h-131z" />
<glyph unicode="_" horiz-adv-x="811" d="M0 -184h811v-95h-811v95z" />
<glyph unicode="`" horiz-adv-x="495" d="M8 1386q0 29 16.5 59t41.5 30q45 2 112 -91l201 -270h-80l-250 201q-41 33 -41 71z" />
<glyph unicode="a" horiz-adv-x="882" d="M130 463.5q52 66.5 173 91.5l248 49v150q0 184 -133 184q-96 0 -121 -66l-16 -122q-8 -66 -64 -66q-55 0 -70.5 15.5t-15.5 70.5q0 231 291 231q166 0 234.5 -71.5t68.5 -237.5v-477q0 -96 16 -121q20 -31 109 -33v-63q-27 0 -82 -2h-84q-127 0 -133 104 q-88 -123 -234 -123q-239 0 -239 293q0 127 52 193.5zM266 262q0 -203 115 -203q170 0 170 287v193q-182 -47 -213 -70q-72 -51 -72 -207z" />
<glyph unicode="b" horiz-adv-x="940" d="M6 1495q51 0 154 2h153v-633q76 137 230 137h1q322 0 322 -501q0 -203 -63 -340q-86 -182 -264 -183q-147 0 -226 117q-41 -55 -75 -76q-27 -12 -103 -28v1366q0 74 -127 78zM307 406q0 -356 185 -357q182 0 182 434q0 190 -17 271q-37 174 -159 174q-190 0 -191 -361 v-161z" />
<glyph unicode="c" horiz-adv-x="835" d="M76 489q0 217 82 351q99 161 301 161h2q129 0 207 -49q96 -61 96 -182q0 -53 -13.5 -75.5t-60.5 -22.5q-68 0 -78 69q-6 63 -12 127q-25 70 -127 70q-135 0 -180 -170q-25 -90 -25 -279q0 -188 29 -280q51 -162 195 -162q111 0 163 84q39 59 58 186h59q-25 -170 -86 -245 q-76 -94 -235 -95q-203 0 -297 162q-78 131 -78 350z" />
<glyph unicode="d" horiz-adv-x="991" d="M88 471q0 530 326 530q158 0 231 -137h2v494q0 70 -137 76v61h311v-1360q0 -74 131 -74v-63q-30 1 -67.5 1t-83.5 -1q-127 -2 -154 -2v131l-2 -2q-88 -147 -227 -148q-180 0 -264 166q-66 127 -66 328zM274 459q0 -406 187 -406q186 1 186 355v147q0 373 -186 373 q-127 0 -166 -185q-20 -90 -21 -284z" />
<glyph unicode="e" horiz-adv-x="862" d="M158 846q99 155 289 155h2q342 0 342 -471v-16h-523v-31q0 -184 25 -272q47 -162 182 -162q203 0 238 268h61q-25 -170 -90 -247q-78 -92 -240 -93q-368 0 -368 530q0 206 82 339zM268 584h328v63q0 293 -158 293q-164 0 -170 -356z" />
<glyph unicode="f" horiz-adv-x="544" d="M43 -2v63q131 4 131 74v776h-131v68h131q0 270 21 346q53 182 254 182q94 0 158.5 -51t64.5 -143q0 -88 -82 -88q-55 0 -63.5 55t-18.5 110.5t-68 55.5q-92 0 -92 -180v-287h170v-68h-170v-776q0 -74 141 -74v-63q-128 5 -239.5 5t-206.5 -5z" />
<glyph unicode="g" horiz-adv-x="878" d="M68 -57q49 84 114 92v2q-84 57 -84 186q0 63 29 126t80 91q-92 90 -92 236q0 137 79.5 230t213.5 93q139 0 206 -47q18 10 67.5 25.5t70.5 15.5q23 0 53.5 -16.5t30.5 -36.5q0 -82 -33 -82t-68 36l-35 36q-10 0 -36 -23q61 -55 63 -207v-7q0 -136 -82 -232 q-88 -106 -227 -107q-92 0 -170 56q-61 -49 -62 -103q0 -117 310 -117q125 0 206 -59q94 -68 95 -186q0 -190 -105 -305q-109 -121 -295 -121q-154 0 -254 61q-120 73 -120 215q0 72 45 148zM141 -174q0 -115 76 -180q70 -63 184 -64q111 0 199 69.5t88 178.5 q0 117 -110 158q-65 24 -196 24h-11h-76q-154 -59 -154 -186zM287 684q0 -266 135 -266t135 260t-133 260q-137 0 -137 -254z" />
<glyph unicode="h" horiz-adv-x="1015" d="M33 -2v61q135 6 135 76v1223q0 76 -135 76v61h311l-2 -661q82 167 266 167h2q141 0 197 -96q43 -72 43 -227v-543q0 -74 131 -74v-63q-123 5 -230.5 5t-199.5 -5v63q123 4 123 74v522q0 113 -17 164q-31 88 -120 88q-195 0 -195 -315v-459q0 -74 125 -74v-61 q-92 6 -191 6q-116 0 -243 -8z" />
<glyph unicode="i" horiz-adv-x="530" d="M47 -2v61q131 0 131 76v713q0 63 -131 70v61h307v-842q0 -76 133 -76v-63q-106 6 -219 6t-221 -6zM190.5 1412q26.5 42 75.5 42t78 -47q25 -39 25 -90t-25 -90q-29 -47 -78 -47t-78 45q-24 38 -24 88q0 57 26.5 99z" />
<glyph unicode="j" horiz-adv-x="487" d="M10 -428q109 55 142 174q16 66 16 234v868q0 70 -133 70v61h309v-967q0 -203 -63 -311q-72 -123 -254 -178zM147 1317q0 51 25 90q29 47 78 47t75.5 -42t26.5 -95t-24 -92q-29 -45 -78 -45t-78 47q-25 39 -25 90z" />
<glyph unicode="k" horiz-adv-x="960" d="M39 -2v63q129 0 129 74v1221q0 74 -127 78l2 61q51 0 152 2h149v-1014q61 86 111 160q115 174 143 254q4 14 -32 21.5t-36 11.5v48h316v-52q-115 0 -145.5 -24.5t-94.5 -131.5q-80 -133 -88 -145l291 -469q59 -96 141 -97v-61q-35 2 -102.5 2t-167.5 -2q-80 141 -272 467 l-64 -74v-258q0 -72 129 -72l2 -63q-106 6 -217 6q-113 0 -219 -6z" />
<glyph unicode="l" horiz-adv-x="530" d="M47 -2v61q131 0 131 76v1223q0 76 -131 76v61h307v-1358q0 -76 133 -76v-63q-106 6 -219 6t-221 -6z" />
<glyph unicode="m" horiz-adv-x="1499" d="M33 -2v63q133 0 133 74v709q0 70 -133 76v59q51 0 151 2h150v-147h8q87 167 258 167h2q178 0 225 -184l2 2q82 182 267 182q137 0 194 -86q45 -70 45 -215v-565q0 -74 127 -74v-63q-121 5 -226.5 5t-195.5 -5v63q121 0 121 74v549q0 223 -129 223q-193 0 -192 -309v-463 q0 -74 116 -74v-63q-100 6 -206 6t-207 -6v63q121 0 121 74v541q0 233 -136 233q-188 0 -188 -311v-463q0 -74 121 -74v-61q-90 6 -188 6q-115 0 -240 -8z" />
<glyph unicode="n" horiz-adv-x="1015" d="M33 -2v61q135 6 135 76v709q0 70 -135 76v59h305v-145h2q108 167 268 167h2q141 0 197 -96q43 -74 43 -225v-545q0 -74 127 -74v-63q-102 6 -213 6t-213 -6v63q123 4 123 74v524q0 111 -19 162q-31 88 -120 88q-193 0 -193 -315v-459q0 -74 121 -74v-63q-92 5 -199.5 5 t-230.5 -5z" />
<glyph unicode="o" horiz-adv-x="923" d="M78 487q0 215 82 351q99 163 301 163h2q201 0 301 -163q80 -136 80 -351t-82 -348q-98 -162 -299 -162t-301 162q-84 133 -84 348zM272 494q0 -205 17 -279q39 -174 174 -174q133 0 172 174q18 78 18 279q0 197 -18 274q-41 170 -172 170q-133 0 -172 -170 q-18 -76 -19 -274z" />
<glyph unicode="p" horiz-adv-x="991" d="M31 -420q66 2 88 10q49 16 49 64v1188q0 78 -133 78l-2 59q51 0 153 2h154v-133h2q72 153 242 153h2h1q314 0 314 -503q0 -520 -344 -521q-131 0 -211 119h-2v-442q0 -76 143 -76v-61q-113 4 -227 4q-117 0 -229 -4v63zM342 590q0 -258 10 -322q35 -217 174 -217 q127 0 168 176q19 87 19 277q0 174 -21 260q-43 162 -164 162q-186 0 -186 -336z" />
<glyph unicode="q" horiz-adv-x="944" d="M72 485q0 516 327 516q137 0 224 -122l94 110h84v-1331q0 -80 135 -80v-61q-109 4 -223 4q-115 0 -226 -4v63q66 2 91 10q47 16 47 66v461l-7 -2q-76 -137 -223 -138q-178 0 -262 177q-61 131 -61 331zM264 485q0 -178 19 -262q39 -172 157 -172q189 0 189 381 q0 233 -13 301q-37 195 -174 195q-121 0 -159 -174q-18 -82 -19 -269z" />
<glyph unicode="r" horiz-adv-x="694" d="M31 -2v63q133 0 133 74v707q0 72 -133 78l2 59q51 0 151 2h150v-160h4q72 180 192 180q74 0 115 -59q35 -51 35 -129q0 -66 -10 -88q-16 -37 -72 -37q-61 0 -74 57q-2 53 -6 108.5t-45 55.5q-72 0 -108 -145q-25 -100 -25 -203v-426q0 -74 137 -74v-63q-128 5 -239.5 5 t-206.5 -5z" />
<glyph unicode="s" horiz-adv-x="735" d="M78 35v305h69q10 -301 199 -301q78 0 126 49t48 125q0 84 -90 152l-160 98q-176 111 -176 256q0 133 80 207.5t213 74.5q104 0 225 -55v-258h-63q-10 115 -39 168q-41 80 -139 80q-137 0 -138 -156q0 -70 111 -139q201 -127 209 -133q111 -94 111 -217q0 -150 -90.5 -232 t-241.5 -82q-129 0 -254 58z" />
<glyph unicode="t" horiz-adv-x="555" d="M31 911v68h116v213l175 18v-231h174v-68h-174v-669q0 -78 10 -111q20 -59 80 -59q31 0 100 69l33 -53q-51 -57 -88 -78q-47 -28 -118 -28h-5q-186 0 -187 278v651h-116z" />
<glyph unicode="u" horiz-adv-x="1015" d="M33 920v59h307v-668q0 -111 18 -159q31 -84 119 -84q195 0 195 344v436q0 72 -131 72v59h305v-846q0 -72 131 -72v-63h3q0 -2 -306 -2v151l-4 -2q-82 -168 -262 -168q-242 0 -242 287v584q0 72 -133 72z" />
<glyph unicode="v" horiz-adv-x="894" d="M8 922v59h434v-59q-35 -2 -69 -7q-53 -6 -54 -24q0 -2 21 -74l170 -594l166 584q23 80 22 82q0 33 -123 33v59h310v-59q-106 -12 -131 -91l-267 -839h-86l-266 844q-27 82 -127 86z" />
<glyph unicode="w" horiz-adv-x="1363" d="M8 920v61h432v-61q-106 -8 -106 -43q0 -68 43 -222q31 -113 98 -411l197 739h145l187 -739l131 516q26 103 28 103v-1q0 59 -116 60v59h313v-59q-43 0 -82 -25t-51 -66l-234 -839h-94l-213 815l-223 -815h-90l-219 774q-23 80 -45 106q-29 37 -101 48z" />
<glyph unicode="x" horiz-adv-x="923" d="M29 -2v63q78 10 82 11q47 12 67 43l211 342l-205 389q-37 70 -155 74v61h417v-61q-82 0 -81 -21l137 -274q0 2 80 143q68 117 67 129q0 23 -67 23v61h280v-61q-119 -4 -151 -60l-181 -295l238 -444q29 -55 127 -60v-63q-84 6 -197 6q-115 0 -198 -6v61q70 0 69 33 q0 6 -147 301q-172 -279 -172 -297q0 -25 76 -35l-2 -63q-70 6 -148 6t-147 -6z" />
<glyph unicode="y" horiz-adv-x="886" d="M10 922v59h430v-59q-102 -6 -102 -56q-8 -25 182 -633q162 627 162 639q0 49 -113 50v59h303v-59q-106 -18 -129 -95l-256 -888q-57 -199 -90 -265q-79 -155 -198 -155h-2q-68 0 -107 48t-39 116q0 37 19.5 65.5t54.5 28.5q49 0 73.5 -80t67.5 -80q88 0 152 258 q4 25 10 74l-281 887q-27 82 -137 86z" />
<glyph unicode="z" horiz-adv-x="811" d="M45 -2l481 913h-211q-141 0 -155 -249h-62v317h656l-486 -909h211q121 0 166 84q31 55 39 192h66v-348q-29 2 -353 2t-352 -2z" />
<glyph unicode="{" horiz-adv-x="552" d="M53 553l2 4q84 29 117 94q25 51 25 150v391q0 166 67.5 234.5t231.5 68.5v-18q-92 -25 -127 -101q-25 -55 -25 -162v-378q0 -115 -20 -170q-29 -82 -119 -111v-4q90 -29 121 -113q18 -53 18 -172v-366q0 -227 152 -262v-21h-11q-168 0 -228 71.5t-60 245.5v373 q0 106 -23 154q-31 63 -121 92z" />
<glyph unicode="|" horiz-adv-x="692" d="M313 -279v1885h66v-1885h-66z" />
<glyph unicode="}" horiz-adv-x="552" d="M57 -362q150 35 150 260v368q0 117 20 172q31 84 121 113v4q-90 29 -121 111q-20 55 -20 170v378q0 106 -25 162q-33 76 -125 101v18q162 0 229.5 -69.5t67.5 -233.5v-391q0 -98 28 -149.5t112 -94.5l4 -2l-4 -6q-88 -29 -117 -92q-23 -47 -23 -152v-371q0 -176 -55 -243 q-61 -74 -229 -74h-13v21z" />
<glyph unicode="~" horiz-adv-x="964" d="M92 455q84 211 215 211q63 0 187 -71t165 -71q80 0 154 158l59 -104q-98 -201 -217 -201q-57 0 -173.5 69.5t-176.5 69.5q-82 0 -153 -164z" />
<glyph unicode="&#xa1;" horiz-adv-x="509" d="M145 868q0 55 27 97q31 49 82 49q53 0 82 -45.5t29 -100.5t-27 -96q-31 -49 -84 -49q-51 0 -82 49q-27 41 -27 96zM150 -303l77 850h47l88 -848q0 -61 -22 -109q-31 -57 -86 -57t-86 57q-25 49 -18 107z" />
<glyph unicode="&#xa2;" d="M92 489q0 215 84 353q100 160 293 159q27 0 53 -2l23 193h59l-24 -203q199 -37 198 -219q0 -53 -13 -75.5t-60 -22.5q-78 0 -78 100q-4 121 -56 150l-102 -871q25 -4 37 -4q111 0 164 84q37 57 57 186l59 -2q-20 -172 -88 -249q-78 -88 -241 -89l-25 -221h-57l24 228 q-307 45 -307 505zM283 489q0 -348 131 -419l102 868h-27q-137 0 -182 -168q-25 -90 -24 -281z" />
<glyph unicode="&#xa3;" d="M16 68q0 92 111 104q14 2 51 10q31 6 51 6q35 88 35 213q0 37 -26 271h-185v78h176v18q0 227 72 403q96 238 289 238q104 0 167.5 -61.5t63.5 -165.5q0 -88 -73 -88q-57 0 -76 63q-12 57 -27 115q-25 63 -92 63q-82 0 -121 -121q-27 -86 -26 -194q0 -68 18 -270h268v-78 h-264v-78q0 -195 -152 -436h46q47 0 141 -8.5t141 -8.5q117 0 160 76q31 55 35 184h45q4 -106 4 -157q0 -121 -57 -195q-63 -84 -179 -84q-63 0 -170 45q-86 35 -170 70q-150 -90 -186 -90q-70 2 -70 78z" />
<glyph unicode="&#xa5;" d="M-18 1325v61q109 -6 225 -6q119 0 225 6v-61q-115 -12 -113 -72q0 -6 199 -512q197 506 197 533q0 51 -101 51l2 61q72 -6 150 -6q80 0 149 6v-61q-102 -8 -149 -119l-193 -454h199v-78h-229v-176h229v-76h-231v-293q0 -74 149 -68l2 -63q-113 6 -233 6q-119 0 -234 -6 v63h11q139 0 139 68v293h-234v76h234q0 147 -10 176h-224v78h199l-156 370q-59 141 -127 183q-27 16 -75 20z" />
<glyph unicode="&#xa6;" horiz-adv-x="489" d="M184 -33v602h121v-602h-121zM184 803v602h121v-602h-121z" />
<glyph unicode="&#xa7;" horiz-adv-x="935" d="M94 403q0 186 238 324q-156 129 -156 281q0 117 105 184q90 55 215 55q100 0 178 -37q102 -47 102 -137q0 -37 -33.5 -61.5t-72.5 -24.5q-76 0 -113 160q-12 51 -94 51q-68 0 -113 -42t-45 -107q0 -111 139 -213q127 -90 256 -183q140 -119 140 -266q0 -154 -240 -287 q160 -127 160 -280q0 -117 -105 -185q-90 -55 -215 -55q-100 0 -178 37q-102 47 -102 137q0 37 33.5 61.5t72.5 24.5q76 0 113 -159q12 -51 94 -52q68 0 113 42t45 108q0 117 -139 215q-129 82 -259 166q-139 109 -139 243zM231 485q0 -111 121 -211q104 -72 209 -145 q78 51 105 86q39 49 39 125q0 111 -121 213q-104 72 -209 145q-78 -51 -105 -86q-39 -49 -39 -127z" />
<glyph unicode="&#xa8;" horiz-adv-x="495" d="M-10 1280q0 43 24.5 80t65.5 37q43 0 69.5 -37t26.5 -80t-26.5 -80t-69.5 -37q-41 0 -65.5 37t-24.5 80zM319 1280q0 43 27 80t68 37q43 0 69.5 -37t26.5 -80t-26.5 -80t-69.5 -37q-41 0 -68 37t-27 80z" />
<glyph unicode="&#xa9;" horiz-adv-x="1587" d="M86 678q0 293 208 499.5t501 206.5t500.5 -206.5t207.5 -499.5t-208 -501t-500 -208q-293 0 -501 208t-208 501zM158 678q0 -264 186 -450.5t451 -186.5q262 0 449.5 187.5t187.5 449.5t-187.5 448.5t-449.5 186.5t-449.5 -186.5t-187.5 -448.5zM401 657q0 190 122 314.5 t313 126.5q35 0 101.5 -15.5t98.5 -15.5q39 0 47 31h39l15 -271l-41 -2q-27 96 -92 156q-72 61 -168 61q-135 0 -215 -135q-70 -115 -70 -260q0 -141 63 -229q74 -102 209 -103q170 0 281 125l43 -18q-135 -174 -338 -172q-182 0 -295 113.5t-113 293.5z" />
<glyph unicode="&#xaa;" horiz-adv-x="485" d="M41 1106q0 92 92 123q82 14 166 31v59q0 82 -68 82q-45 0 -58 -17.5t-13 -59.5t-45 -42t-45 49q0 109 161 109q172 0 172 -144v-217q0 -43 11.5 -54t54.5 -11v-33q-16 0 -48 -2t-46 -2q-23 0 -47 10q-31 14 -27 35q-6 -23 -55 -39q-41 -14 -72 -14q-133 0 -133 137z M147 1108q0 -94 60 -94q90 0 90 127v80q-88 -18 -102 -27q-47 -25 -48 -86z" />
<glyph unicode="&#xab;" horiz-adv-x="794" d="M96 457v67l273 346l49 -20l-174 -363l176 -358l-49 -20zM377 457v67l272 346l47 -20l-172 -363l176 -358l-51 -20z" />
<glyph unicode="&#xad;" horiz-adv-x="589" d="M72 414v159h446v-159h-446z" />
<glyph unicode="&#xae;" horiz-adv-x="1587" d="M86 672q0 293 207 500.5t500 207.5t500.5 -207.5t207.5 -500.5t-208 -500t-500 -207q-293 0 -500 207t-207 500zM158 672q0 -264 185 -450.5t450 -186.5q264 0 450.5 186.5t186.5 450.5t-186.5 450.5t-450.5 186.5t-449.5 -186.5t-185.5 -450.5zM422 279v32 q57 0 79.5 21.5t22.5 77.5v555q0 66 -14 83t-76 17v37h363q111 0 188 -53q90 -61 90 -168q0 -82 -57 -136.5t-144 -66.5l228 -305q43 -57 98 -60v-34h-190l-283 383h-65v-287q0 -61 108 -62v-34h-348zM659 707q281 27 281 170q0 156 -240 155q-27 0 -38 -2z" />
<glyph unicode="&#xaf;" horiz-adv-x="495" d="M25 1194v129h448v-129h-448z" />
<glyph unicode="&#xb0;" horiz-adv-x="657" d="M88 1214q0 102 72.5 174t173.5 72q98 0 169.5 -72.5t71.5 -170.5q0 -102 -69.5 -176t-171.5 -74t-174 72.5t-72 174.5zM156 1210q0 -74 52 -127t126 -53t124 54t50 130q0 72 -52.5 125.5t-123.5 53.5q-74 0 -125 -54.5t-51 -128.5z" />
<glyph unicode="&#xb2;" horiz-adv-x="493" d="M29 672v88q172 199 180 209q100 137 100 245q0 131 -78 132q-84 0 -84 -134q0 -61 46 -112l-58 -37q-86 61 -86 162q0 90 57.5 147.5t153.5 57.5t149.5 -58.5t53.5 -148.5q0 -96 -96 -217q-39 -47 -172 -181l-9 -8h142q39 0 55 25q12 18 23 80h59v-248z" />
<glyph unicode="&#xb3;" horiz-adv-x="493" d="M31 858q0 45 49 45q31 0 60.5 -77.5t84.5 -77.5q84 0 84 161q0 76 -4 99q-14 55 -67 55q-29 0 -101 -23l4 76q156 63 156 144q0 78 -76 77q-82 0 -88 -141l-88 10q4 98 56.5 161t144.5 63q78 0 131 -39q61 -43 61 -119q0 -109 -84 -150q109 -43 109 -211 q0 -247 -221 -247q-154 0 -199 137q-12 37 -12 57z" />
<glyph unicode="&#xb4;" horiz-adv-x="495" d="M133 1114l221 303q45 61 82 62q68 0 68 -84q0 -43 -47 -82l-244 -199h-80z" />
<glyph unicode="&#xb6;" horiz-adv-x="962" d="M49 1038q0 340 373 340q39 0 116.5 -3t114.5 -3t109 4t106 4v-22q-43 -25 -43 -121v-1262q0 -100 43 -120v-23l-141 6v1448h-70v-1448q-74 0 -151 -6v23q43 20 43 120v1311q-39 8 -88 8q-211 0 -211 -268q0 -133 63 -215q37 -47 117 -90q63 -35 64 -57q0 -37 -41 -37 q-29 0 -105 26q-299 104 -299 385z" />
<glyph unicode="&#xb7;" horiz-adv-x="450" d="M117 567q0 51 29.5 93t78.5 42q47 0 77 -43t30 -92t-29 -88q-31 -45 -78 -45t-77.5 42t-30.5 91z" />
<glyph unicode="&#xb8;" horiz-adv-x="581" d="M123 -406l22 64q57 -23 99 -23q94 0 94 86q0 35 -31 56.5t-69 21.5q-14 0 -29 -4l-12 10l65 193h62l-43 -125q31 10 57 10q61 0 97 -43t36 -104q0 -92 -70 -139q-59 -39 -155 -39q-45 0 -123 36z" />
<glyph unicode="&#xb9;" horiz-adv-x="493" d="M70 1157v107q106 70 163 163h97v-663q0 -16 96 -16v-76q-92 4 -174 4t-174 -4v73q104 4 104 19v483q-45 -45 -112 -90z" />
<glyph unicode="&#xba;" horiz-adv-x="509" d="M41 1202q0 106 54.5 172t158.5 66t159.5 -66t55.5 -172q0 -104 -55.5 -168.5t-159.5 -64.5q-213 0 -213 233zM154 1206q0 -92 10 -127q20 -72 90 -71q70 0 92 69q10 37 10 129q0 90 -10 125q-23 70 -92 70q-68 0 -90 -70q-10 -35 -10 -125z" />
<glyph unicode="&#xbb;" horiz-adv-x="794" d="M102 127l177 362l-162 320l41 49l268 -336v-67l-272 -349zM383 127l174 362l-160 318l43 51l265 -336v-67l-273 -349z" />
<glyph unicode="&#xbc;" horiz-adv-x="1587" d="M219 1157v107q109 70 166 163h96v-663q0 -16 97 -16v-76q-92 4 -175 4q-82 0 -174 -4v73q104 4 105 19v483q-47 -45 -115 -90zM412 -94l671 1589h82l-671 -1589h-82zM903 213l2 74q92 150 266 467h111v-445h66v-96h-66v-123q0 -16 86 -16v-76h-313v76q84 0 84 16v123 h-236zM1010 309h129v226q-41 -70 -129 -226z" />
<glyph unicode="&#xbd;" horiz-adv-x="1587" d="M217 1157v107q109 70 166 163h94v-663q0 -16 96 -16v-76q-92 4 -174 4t-172 -4v73q102 4 103 19v483q-45 -45 -113 -90zM408 -94l671 1589h82l-672 -1589h-81zM934 -2v88q172 199 180 209q100 137 100 246q0 131 -77 131q-84 0 -84 -133q0 -61 45 -113l-58 -37 q-86 61 -86 162q0 90 57.5 147.5t153.5 57.5t149.5 -58.5t53.5 -148.5q0 -96 -96 -217q-39 -47 -172 -180l-8 -9h141q39 0 55 25q12 18 23 80h59v-248z" />
<glyph unicode="&#xbe;" horiz-adv-x="1587" d="M201 858q0 45 49 45q31 0 60.5 -77.5t84.5 -77.5q86 0 86 161q0 76 -6 99q-14 55 -67 55q-29 0 -101 -23l4 76q156 63 156 144q0 78 -76 77q-82 0 -88 -141l-86 10q2 98 54.5 161t144.5 63q78 0 131 -39q61 -43 61 -119q0 -109 -84 -150q109 -43 109 -211 q0 -247 -221 -247q-154 0 -199 137q-12 37 -12 57zM430 -94l672 1589h82l-672 -1589h-82zM922 213l2 74q92 150 268 467h108v-445h68v-96h-68v-123q0 -16 86 -16v-76h-313v76q86 0 86 16v123h-237zM1028 309h129v226q-39 -70 -129 -226z" />
<glyph unicode="&#xbf;" horiz-adv-x="729" d="M57 -129q0 115 43 182q37 57 140 127q35 23 94 72q18 23 33 280l63 17q6 -111 6 -221q0 -80 -6 -97q-20 -53 -76 -90q-63 -41 -82 -73q-39 -63 -39 -201q0 -281 136 -281q80 0 98 80q8 74 19.5 152t74.5 78q74 -1 74 -91q0 -125 -76 -202.5t-201 -77.5q-150 0 -229 98 q-72 92 -72 248zM291 860q0 53 29.5 99.5t78.5 46.5t78 -46.5t29 -99.5t-25 -96q-31 -51 -82 -51t-82 51q-27 43 -26 96z" />
<glyph unicode="&#xc0;" horiz-adv-x="1189" d="M27 -2v65q33 2 67 7q45 6 60 22q20 25 202 651q100 352 201 705q14 -2 45 -2q29 0 43 2l354 -1270q10 -39 68.5 -79t99.5 -36v-65q-125 6 -256 6q-129 0 -256 -6v65q45 4 88 9q70 8 70 30q0 10 -119 447h-332q-31 -115 -61 -230q-51 -190 -51 -210q0 -35 151 -46v-63 q-197 10 -374 -2zM348 1829q0 29 16.5 56.5t41.5 27.5q45 0 112 -90l201 -271h-80l-254 203q-39 31 -37 74zM383 623h295l-141 522z" />
<glyph unicode="&#xc1;" horiz-adv-x="1189" d="M27 0v66q33 2 67 6q45 6 60 22q20 25 202 651q100 352 201 705q14 -2 45 -2q29 0 43 2l354 -1270q10 -39 68.5 -79t99.5 -35v-66q-125 6 -256 6q-129 0 -256 -6v66q45 4 88 8q70 8 70 30q0 10 -119 447h-332q-31 -115 -61 -229q-51 -190 -51 -211q0 -35 151 -45v-64 q-197 10 -374 -2zM383 625h295l-141 522zM463 1552l221 306q43 59 78 59q69 0 69 -86q0 -43 -45 -80l-245 -199h-78z" />
<glyph unicode="&#xc2;" horiz-adv-x="1189" d="M27 -2v65q33 2 67 7q45 6 60 22q20 25 202 651q100 352 201 705q14 -2 45 -2q29 0 43 2l354 -1270q10 -39 68.5 -79t99.5 -36v-65q-125 6 -256 6q-129 0 -256 -6v65q45 4 88 9q70 8 70 30q0 10 -119 447h-332q-31 -115 -61 -230q-51 -190 -51 -210q0 -35 151 -46v-63 q-197 10 -374 -2zM338 1552l199 351h127l196 -351h-74l-188 209l-186 -209h-74zM383 623h295l-141 522z" />
<glyph unicode="&#xc3;" horiz-adv-x="1189" d="M27 -2v65q33 2 67 7q45 6 60 22q20 25 202 651q100 352 201 705q14 -2 45 -2q29 0 43 2l354 -1270q10 -39 68.5 -79t99.5 -36v-65q-125 6 -256 6q-129 0 -256 -6v65q45 4 88 9q70 8 70 30q0 10 -119 447h-332q-31 -115 -61 -230q-51 -190 -51 -210q0 -35 151 -46v-63 q-197 10 -374 -2zM338 1591q35 236 180 236q43 0 125 -48t121 -48q31 0 53.5 32.5t28.5 65.5h57q-35 -238 -180 -238q-49 0 -131 49.5t-117 49.5q-33 0 -53.5 -32t-24.5 -67h-59zM383 623h295l-141 522z" />
<glyph unicode="&#xc4;" horiz-adv-x="1189" d="M27 -2v65q33 2 67 7q45 6 60 22q20 25 202 651q100 352 201 705q14 -2 45 -2q29 0 43 2l354 -1270q10 -39 68.5 -79t99.5 -36v-65q-125 6 -256 6q-129 0 -256 -6v65q45 4 88 9q70 8 70 30q0 10 -119 447h-332q-31 -115 -61 -230q-51 -190 -51 -210q0 -35 151 -46v-63 q-197 10 -374 -2zM352 1708q0 43 24.5 80t65.5 37q43 0 70 -36t27 -81q0 -43 -27 -80t-70 -37q-41 0 -65.5 37t-24.5 80zM383 623h295l-141 522zM680 1708q0 43 26.5 80t67.5 37q43 0 69.5 -37t26.5 -80t-26.5 -80t-69.5 -37q-41 0 -67.5 37t-26.5 80z" />
<glyph unicode="&#xc5;" horiz-adv-x="1189" d="M27 -2v65q33 2 67 7q45 6 60 22q20 25 202 651q100 352 201 705q14 -2 45 -2q29 0 43 2l354 -1270q10 -39 68.5 -79t99.5 -36v-65q-125 6 -256 6q-129 0 -256 -6v65q45 4 88 9q70 8 70 30q0 10 -119 447h-332q-31 -115 -61 -230q-51 -190 -51 -210q0 -35 151 -46v-63 q-197 10 -374 -2zM383 623h295l-141 522zM430 1751q0 78 45 133t123 55q76 0 121 -55t45 -133t-45 -133t-121 -55q-78 0 -123 55t-45 133zM500 1751q0 -45 27.5 -85t72.5 -40q43 0 72 43q26 37 26 82t-27.5 85t-70.5 40q-45 0 -72.5 -40t-27.5 -85z" />
<glyph unicode="&#xc6;" horiz-adv-x="1634" d="M-4 -2v65q121 12 174 138l508 1173h-141v66h979l2 -402h-72q-20 213 -74 271q-61 63 -266 63h-164v-588q23 -2 68 -2q129 0 172 64q35 51 35 190h63v-587h-63q-4 150 -31 192q-39 68 -176 68q-45 0 -68 -2v-635h236q168 0 233 112q43 76 59 271h64v-457q-49 2 -596 2 q-317 0 -340 -2v63q152 6 152 74v397h-363l-121 -313q-14 -31 -28 -63q-18 -43 -19 -62q0 -31 146 -31l-3 -65q-88 4 -182 4t-184 -4zM418 606h332v762z" />
<glyph unicode="&#xc7;" horiz-adv-x="1134" d="M76 719q0 326 121 516q147 231 452 231q176 0 398 -96v-364h-72q-27 197 -74 274q-74 115 -246 115q-362 0 -362 -664q0 -285 49 -434q84 -250 307 -250q299 0 324 424h76v-387q-178 -102 -414 -107l-12 -12l-29 -92q27 10 53 10q61 0 97 -43t36 -104q0 -178 -221 -180 q-51 0 -127 38l25 64q57 -23 98 -23q92 0 92 86q0 35 -29.5 56.5t-68.5 21.5q-14 0 -29 -4l-14 10l61 175q-266 25 -391 258q-100 186 -100 481z" />
<glyph unicode="&#xc8;" horiz-adv-x="1069" d="M41 -2v65q152 0 152 74v1166q0 74 -152 73v66q23 -2 334 -2q537 0 583 2l3 -404h-72q-20 213 -77.5 273.5t-264.5 60.5h-164v-588q23 -2 68 -2q129 0 174 64q35 51 34 190h62v-587l-64 2q-6 143 -24 180q-33 70 -154 76q-20 4 -96 0v-635h235q168 0 234 112q45 76 61 271 h62v-457q-39 2 -596 2q-315 0 -338 -2zM285 1827q0 27 17 56.5t42 29.5q47 0 113 -90l198 -271h-77l-252 201q-41 33 -41 74z" />
<glyph unicode="&#xc9;" horiz-adv-x="1069" d="M41 0v66q152 0 152 73v1166q0 74 -152 73v66q23 -2 334 -2q537 0 583 2l3 -404h-72q-20 213 -77.5 273.5t-264.5 60.5h-164v-588q23 -2 68 -2q129 0 174 64q35 51 34 190h62v-587l-64 2q-6 143 -24 180q-33 70 -154 76q-20 4 -96 0v-635h235q168 0 234 112q45 76 61 271 h62v-457q-39 2 -596 2q-315 0 -338 -2zM444 1552l222 306q43 59 79 59q70 0 70 -86q0 -43 -45 -80l-246 -199h-80z" />
<glyph unicode="&#xca;" horiz-adv-x="1069" d="M41 -2v65q152 0 152 74v1166q0 74 -152 73v66q23 -2 334 -2q537 0 583 2l3 -404h-72q-20 213 -77.5 273.5t-264.5 60.5h-164v-588q23 -2 68 -2q129 0 174 64q35 51 34 190h62v-587l-64 2q-6 143 -24 180q-33 70 -154 76q-20 4 -96 0v-635h235q168 0 234 112q45 76 61 271 h62v-457q-39 2 -596 2q-315 0 -338 -2zM266 1552l197 351h127l198 -351h-75l-187 209l-186 -209h-74z" />
<glyph unicode="&#xcb;" horiz-adv-x="1069" d="M41 -2v65q152 0 152 74v1166q0 74 -152 73v66q23 -2 334 -2q537 0 583 2l3 -404h-72q-20 213 -77.5 273.5t-264.5 60.5h-164v-588q23 -2 68 -2q129 0 174 64q35 51 34 190h62v-587l-64 2q-6 143 -24 180q-33 70 -154 76q-20 4 -96 0v-635h235q168 0 234 112q45 76 61 271 h62v-457q-39 2 -596 2q-315 0 -338 -2zM301 1712q0 43 25.5 80t66.5 37q43 0 69.5 -37t26.5 -80t-26.5 -80t-69.5 -37q-41 0 -66.5 37t-25.5 80zM631 1712q0 43 26.5 80t67.5 37t67.5 -37t26.5 -80t-26.5 -80t-67.5 -37t-67.5 37t-26.5 80z" />
<glyph unicode="&#xcc;" horiz-adv-x="595" d="M39 1827q0 29 17.5 57.5t43.5 28.5q45 0 113 -90l201 -271h-80l-252 201q-41 33 -43 74zM47 -2v65q154 0 154 72v1170q0 72 -154 71v66q123 -6 252 -6q127 0 250 6v-66q-154 0 -154 -71v-1170q0 -72 154 -72v-65q-100 6 -250 4z" />
<glyph unicode="&#xcd;" horiz-adv-x="595" d="M47 -2v65q154 0 154 72v1170q0 72 -154 71v66q123 -6 252 -6q127 0 250 6v-66q-154 0 -154 -71v-1170q0 -72 154 -72v-65q-100 6 -250 4zM178 1552l219 306q43 61 84 61q68 2 68 -84q0 -45 -47 -84l-244 -199h-80z" />
<glyph unicode="&#xce;" horiz-adv-x="595" d="M43 1552l199 351h127l196 -351h-73l-189 209l-184 -209h-76zM47 -2v65q154 0 154 72v1170q0 72 -154 71v66q123 -6 252 -6q127 0 250 6v-66q-154 0 -154 -71v-1170q0 -72 154 -72v-65q-100 6 -250 4z" />
<glyph unicode="&#xcf;" horiz-adv-x="595" d="M45 1712q0 43 24.5 80t65.5 37t67.5 -37t26.5 -80t-26.5 -80t-67.5 -37t-65.5 37t-24.5 80zM47 -2v65q154 0 154 72v1170q0 72 -154 71v66q123 -6 252 -6q127 0 250 6v-66q-154 0 -154 -71v-1170q0 -72 154 -72v-65q-100 6 -250 4zM373 1712q0 43 26.5 80t69.5 37 q41 0 67.5 -37t26.5 -80q0 -41 -26.5 -79t-67.5 -38q-43 0 -69.5 37t-26.5 80z" />
<glyph unicode="&#xd0;" horiz-adv-x="1249" d="M35 -2v65q150 0 149 72v504h-112v119h112v547q0 72 -149 71v66q123 -6 309 -4q311 4 309 4q510 0 510 -709q0 -344 -100 -516q-131 -219 -449 -219q-580 0 -579 0zM377 72q57 -4 172 -4q242 0 334 211q63 143 63 426q0 281 -49 428q-82 242 -305 241q-160 0 -215 -8v-608 h141v-119h-141v-567z" />
<glyph unicode="&#xd1;" horiz-adv-x="1265" d="M39 -2v65q150 0 149 72v1170q0 72 -149 71v68q186 -14 348 -2l629 -1086v949q0 72 -164 71v68q180 -12 379 -2v-66q-147 0 -148 -71l2 -1313q-29 0 -86 -4l-745 1276v-1129q0 -72 164 -72l-2 -67q-203 14 -377 2zM362 1591q31 236 179 236q43 0 125 -48t120 -48 q31 0 53.5 32.5t28.5 65.5h58q-35 -238 -176 -238q-53 0 -135.5 49.5t-114.5 49.5q-66 0 -80 -99h-58z" />
<glyph unicode="&#xd2;" horiz-adv-x="1286" d="M82 723q0 743 559 743q557 0 557 -743q0 -745 -557 -746q-303 0 -444 232q-115 188 -115 514zM301 723q0 -281 45 -426q78 -250 295 -250t295 250q45 143 45 426t-45 426q-78 248 -295 248t-295 -248q-45 -145 -45 -426zM395 1829q0 29 16.5 56.5t41.5 27.5q45 0 112 -90 l201 -271h-78l-254 203q-41 33 -39 74z" />
<glyph unicode="&#xd3;" horiz-adv-x="1286" d="M82 723q0 743 559 743q557 0 557 -743q0 -745 -557 -746q-303 0 -444 232q-115 188 -115 514zM301 723q0 -281 45 -426q78 -250 295 -250t295 250q45 143 45 426t-45 426q-78 248 -295 248t-295 -248q-45 -145 -45 -426zM520 1552l221 306q43 59 80 59q70 0 70 -84 q0 -43 -47 -82l-244 -199h-80z" />
<glyph unicode="&#xd4;" horiz-adv-x="1286" d="M82 723q0 743 559 743q557 0 557 -743q0 -745 -557 -746q-303 0 -444 232q-115 188 -115 514zM301 723q0 -281 45 -426q78 -250 295 -250t295 250q45 143 45 426t-45 426q-78 248 -295 248t-295 -248q-45 -145 -45 -426zM395 1552l199 351h127l199 -351h-76l-189 209 l-184 -209h-76z" />
<glyph unicode="&#xd5;" horiz-adv-x="1286" d="M82 723q0 743 559 743q557 0 557 -743q0 -745 -557 -746q-303 0 -444 232q-115 188 -115 514zM301 723q0 -281 45 -426q78 -250 295 -250t295 250q45 143 45 426t-45 426q-78 248 -295 248t-295 -248q-45 -145 -45 -426zM387 1591q31 236 178 236q43 0 125 -48t121 -48 q31 0 53.5 32.5t28.5 65.5h57q-35 -238 -178 -238q-51 0 -132 49.5t-116 49.5q-66 0 -80 -99h-57z" />
<glyph unicode="&#xd6;" horiz-adv-x="1286" d="M82 723q0 743 559 743q557 0 557 -743q0 -745 -557 -746q-303 0 -444 232q-115 188 -115 514zM301 723q0 -281 45 -426q78 -250 295 -250t295 250q45 143 45 426t-45 426q-78 248 -295 248t-295 -248q-45 -145 -45 -426zM399 1712q0 43 26 80t67 37t67.5 -37t26.5 -80 t-27 -80t-67 -37q-41 0 -67 37t-26 80zM729 1712q0 43 26.5 80t67.5 37t68 -37t27 -80q0 -41 -27 -79t-68 -38t-67.5 37t-26.5 80z" />
<glyph unicode="&#xd7;" horiz-adv-x="1024" d="M133 102l301 306l-301 301l76 79l303 -303l305 308l76 -78l-303 -307l303 -306l-76 -79l-305 307l-303 -307z" />
<glyph unicode="&#xd8;" horiz-adv-x="1286" d="M72 -4l135 194q-125 195 -125 533q0 743 561 743q229 0 365 -133l129 187l37 -37l-130 -189q154 -190 154 -571q0 -745 -557 -746q-248 0 -391 158l-131 -194zM301 721q0 -219 29 -356l585 837q-82 195 -274 195q-217 0 -295 -248q-45 -145 -45 -428zM352 281 q78 -233 289 -234q217 0 295 248q45 143 45 428q0 258 -43 414z" />
<glyph unicode="&#xd9;" horiz-adv-x="1265" d="M39 1442q121 -6 250 -6t250 6v-66q-160 0 -160 -71v-867q0 -186 55 -274q70 -109 244 -109q190 0 270 113q68 94 68 295v842q0 72 -172 71v66q96 -4 194 -4t193 4v-66q-145 0 -146 -71v-850q0 -246 -105.5 -359.5t-348.5 -113.5q-238 0 -340.5 101t-102.5 339v883 q0 72 -147 71zM383 1827q0 29 17.5 57.5t41.5 28.5q43 0 111 -90l201 -271h-78l-252 203q-41 33 -41 72z" />
<glyph unicode="&#xda;" horiz-adv-x="1265" d="M39 1442q121 -6 250 -6t250 6v-66q-160 0 -160 -71v-867q0 -186 55 -274q70 -109 244 -109q190 0 270 113q68 94 68 295v842q0 72 -172 71v66q96 -4 194 -4t193 4v-66q-145 0 -146 -71v-850q0 -246 -105.5 -359.5t-348.5 -113.5q-238 0 -340.5 101t-102.5 339v883 q0 72 -147 71zM588 1552l221 306q43 59 80 59q31 0 50 -25.5t19 -58.5q0 -43 -47 -82l-243 -199h-80z" />
<glyph unicode="&#xdb;" horiz-adv-x="1265" d="M39 1442q121 -6 250 -6t250 6v-66q-160 0 -160 -71v-867q0 -186 55 -274q70 -109 244 -109q190 0 270 113q68 94 68 295v842q0 72 -172 71v66q96 -4 194 -4t193 4v-66q-145 0 -146 -71v-850q0 -246 -105.5 -359.5t-348.5 -113.5q-238 0 -340.5 101t-102.5 339v883 q0 72 -147 71zM418 1552l198 351h127l199 -351h-76l-188 209l-184 -209h-76z" />
<glyph unicode="&#xdc;" horiz-adv-x="1265" d="M39 1442q121 -6 250 -6t250 6v-66q-160 0 -160 -71v-867q0 -186 55 -274q70 -109 244 -109q190 0 270 113q68 94 68 295v842q0 72 -172 71v66q96 -4 194 -4t193 4v-66q-145 0 -146 -71v-850q0 -246 -105.5 -359.5t-348.5 -113.5q-238 0 -340.5 101t-102.5 339v883 q0 72 -147 71zM422 1712q0 43 25.5 80t66.5 37q43 0 67.5 -36t24.5 -81t-22 -78q-27 -39 -70 -39q-41 0 -66.5 37t-25.5 80zM752 1712q0 43 26.5 80t67.5 37t67.5 -37t26.5 -80q0 -41 -26.5 -79t-67.5 -38t-67.5 37t-26.5 80z" />
<glyph unicode="&#xdd;" horiz-adv-x="1099" d="M4 1442q131 -6 266 -6q133 0 265 6v-66q-43 -2 -86 -6q-70 -8 -70 -27q0 -6 51 -118l209 -457l182 434q57 137 58 141q0 35 -140 35v64q86 -6 179 -6q90 0 176 6v-64q-127 -23 -174 -125l-211 -462q-53 -117 -54 -144v-512q0 -72 164 -72v-65q-127 6 -258 6 q-133 0 -260 -6v65q164 0 164 72v498q0 49 -62 176l-194 401q-74 154 -203 168zM567 1552l219 306q43 61 84 61q68 2 68 -84q0 -45 -47 -84l-244 -199h-80z" />
<glyph unicode="&#xde;" horiz-adv-x="1011" d="M39 -2v65q154 0 154 72v1170q0 72 -154 71v66q123 -6 252 -6q127 0 250 6v-66q-154 0 -154 -71v-134q18 0 94 3q68 2 135 2q342 0 342 -385q0 -289 -159 -371q-98 -51 -412 -49v-236q0 -72 154 -72v-65q-100 6 -250 4zM387 440q27 -2 53 0q186 0 252 78q57 70 58 264 q0 160 -37 230q-51 96 -193 96h-133v-668z" />
<glyph unicode="&#xdf;" horiz-adv-x="1069" d="M39 -2v63q45 -2 84 13q49 20 49 59v1006q0 197 89 282.5t288 85.5q152 0 237 -69q96 -76 97 -226q0 -111 -48.5 -169t-154.5 -95v-4q170 -25 233 -149q48 -92 48 -285q0 -227 -39 -340q-66 -186 -248 -186q-80 0 -135 41q-61 45 -62 122q0 51 29 113l35 -4v-25 q0 -180 121 -180q86 0 108 189q6 55 6 247q0 143 -10 211q-23 137 -92 179q-43 27 -135 32l-27 2v64q115 16 160 64t45 163q0 246 -193 246q-182 0 -182 -281v-1034q0 -72 111 -72l-2 -65q-137 2 -412 2z" />
<glyph unicode="&#xe0;" horiz-adv-x="882" d="M78 272q0 125 52 191.5t173 91.5l248 49v150q0 184 -133 184q-96 0 -121 -66l-16 -122q-8 -66 -64 -66q-55 0 -70.5 15.5t-15.5 70.5q0 231 291 231q166 0 234.5 -71.5t68.5 -237.5v-477q0 -96 16 -121q20 -31 109 -33v-63q-27 0 -82 -2h-84q-127 0 -133 104 q-88 -123 -234 -123q-240 0 -239 295zM141 1389q0 29 16.5 57.5t43.5 28.5q45 2 112 -91l201 -270h-78l-254 201q-41 33 -41 74zM266 262q0 -203 115 -203q170 0 170 287v193q-182 -47 -213 -70q-72 -51 -72 -207z" />
<glyph unicode="&#xe1;" horiz-adv-x="882" d="M78 272q0 125 52 191.5t173 91.5l248 49v150q0 184 -133 184q-96 0 -121 -66l-16 -122q-8 -66 -64 -66q-55 0 -70.5 15.5t-15.5 70.5q0 231 291 231q166 0 234.5 -71.5t68.5 -237.5v-477q0 -96 16 -121q20 -31 109 -33v-63q-27 0 -82 -2h-84q-127 0 -133 104 q-88 -123 -234 -123q-240 0 -239 295zM266 262q0 -203 115 -203q170 0 170 287v193q-182 -47 -213 -70q-72 -51 -72 -207zM324 1114l221 303q45 61 78 62q71 0 71 -84q0 -43 -47 -82l-244 -199h-79z" />
<glyph unicode="&#xe2;" horiz-adv-x="882" d="M78 272q0 125 52 191.5t173 91.5l248 49v150q0 184 -133 184q-96 0 -121 -66l-16 -122q-8 -66 -64 -66q-55 0 -70.5 15.5t-15.5 70.5q0 231 291 231q166 0 234.5 -71.5t68.5 -237.5v-477q0 -96 16 -121q20 -31 109 -33v-63q-27 0 -82 -2h-84q-127 0 -133 104 q-88 -123 -234 -123q-240 0 -239 295zM176 1114l199 350h127l196 -350h-73l-187 209l-186 -209h-76zM266 262q0 -203 115 -203q170 0 170 287v193q-182 -47 -213 -70q-72 -51 -72 -207z" />
<glyph unicode="&#xe3;" horiz-adv-x="882" d="M78 272q0 125 52 191.5t173 91.5l248 49v150q0 184 -133 184q-96 0 -121 -66l-16 -122q-8 -66 -64 -66q-55 0 -70.5 15.5t-15.5 70.5q0 231 291 231q166 0 234.5 -71.5t68.5 -237.5v-477q0 -96 16 -121q20 -31 109 -33v-63q-27 0 -82 -2h-84q-127 0 -133 104 q-88 -123 -234 -123q-240 0 -239 295zM156 1163q35 236 178 236q43 0 127 -48t119 -48q63 0 84 98h57q-41 -240 -178 -240q-49 0 -132 50.5t-116 50.5q-66 0 -80 -99h-59zM266 262q0 -203 115 -203q170 0 170 287v193q-182 -47 -213 -70q-72 -51 -72 -207z" />
<glyph unicode="&#xe4;" horiz-adv-x="882" d="M78 272q0 125 52 191.5t173 91.5l248 49v150q0 184 -133 184q-96 0 -121 -66l-16 -122q-8 -66 -64 -66q-55 0 -70.5 15.5t-15.5 70.5q0 231 291 231q166 0 234.5 -71.5t68.5 -237.5v-477q0 -96 16 -121q20 -31 109 -33v-63q-27 0 -82 -2h-84q-127 0 -133 104 q-88 -123 -234 -123q-240 0 -239 295zM193 1280q0 43 24.5 80t65.5 37t67.5 -37t26.5 -80t-26.5 -80t-67.5 -37t-65.5 37t-24.5 80zM266 262q0 -203 115 -203q170 0 170 287v193q-182 -47 -213 -70q-72 -51 -72 -207zM520 1280q0 43 26.5 80t69.5 37q41 0 68 -37t27 -80 q0 -41 -27 -79t-68 -38q-43 0 -69.5 37t-26.5 80z" />
<glyph unicode="&#xe5;" horiz-adv-x="882" d="M78 272q0 125 52 191.5t173 91.5l248 49v150q0 184 -133 184q-96 0 -121 -66l-16 -122q-8 -66 -64 -66q-55 0 -70.5 15.5t-15.5 70.5q0 231 291 231q166 0 234.5 -71.5t68.5 -237.5v-477q0 -96 16 -121q20 -31 109 -33v-63q-27 0 -82 -2h-84q-127 0 -133 104 q-88 -123 -234 -123q-240 0 -239 295zM266 262q0 -203 115 -203q170 0 170 287v193q-182 -47 -213 -70q-72 -51 -72 -207zM272 1307q0 78 45 133t121 55t120 -56t44 -132t-44 -132.5t-120 -56.5t-121 55.5t-45 133.5zM340 1307q0 -47 26.5 -86t71.5 -39t72 39t27 86t-27 86 t-72 39t-71.5 -39t-26.5 -86z" />
<glyph unicode="&#xe6;" horiz-adv-x="1304" d="M70 272q0 137 73 209q55 53 179 80q109 23 217 43v144q0 190 -127 190q-82 0 -113 -55q-23 -41 -23 -129q0 -70 -65 -70q-55 0 -69.5 16.5t-14.5 69.5q0 231 289 231q166 0 227 -114q90 115 246 114q342 0 342 -471v-16h-518v-29q0 -195 22 -274q43 -162 185 -162 q201 0 235 268h59q-25 -172 -90 -247q-76 -92 -237 -93q-223 0 -312 199q-74 -199 -264 -199q-242 0 -241 295zM254 270q0 -211 117 -211q168 0 168 297v183q-182 -49 -211 -70q-74 -49 -74 -199zM713 584h325q0 158 -16 221q-33 135 -141 135q-168 0 -168 -336v-20z" />
<glyph unicode="&#xe7;" horiz-adv-x="835" d="M76 489q0 217 82 351q100 162 303 161q129 0 207 -49q96 -61 96 -182q0 -53 -13.5 -75.5t-60.5 -22.5q-43 0 -59.5 16.5t-16.5 63.5q0 92 -22 131q-31 55 -119 55q-135 0 -180 -170q-25 -90 -25 -279q0 -188 29 -280q51 -162 195 -162q111 0 163 84q39 59 58 186l57 -2 q-18 -160 -80 -239q-72 -94 -221 -99l-37 -104q31 10 57 10q61 0 97.5 -43t36.5 -102q0 -180 -226 -182q-47 0 -123 38l23 64q57 -23 98 -23q94 0 94 86q0 45 -39.5 63.5t-87.5 10.5l-14 10l60 172q-332 31 -332 512z" />
<glyph unicode="&#xe8;" horiz-adv-x="862" d="M76 510q0 203 82 336q100 156 291 155q342 0 342 -471v-16h-523v-31q0 -184 25 -272q47 -162 182 -162q195 0 234 268l59 -2q-25 -170 -88 -245q-78 -92 -236 -93q-369 0 -368 533zM164 1389q0 29 16.5 57.5t42.5 28.5q43 2 111 -91l203 -270h-80l-252 201q-41 33 -41 74 zM268 584h328v63q0 293 -158 293q-164 0 -170 -356z" />
<glyph unicode="&#xe9;" horiz-adv-x="862" d="M76 510q0 203 82 336q100 156 291 155q342 0 342 -471v-16h-523v-31q0 -184 25 -272q47 -162 182 -162q195 0 234 268l59 -2q-25 -170 -88 -245q-78 -92 -236 -93q-369 0 -368 533zM268 584h328v63q0 293 -158 293q-164 0 -170 -356zM346 1114l221 303q45 61 78 62 q72 0 72 -84q0 -43 -47 -82l-244 -199h-80z" />
<glyph unicode="&#xea;" horiz-adv-x="862" d="M76 510q0 203 82 336q100 156 291 155q342 0 342 -471v-16h-523v-31q0 -184 25 -272q47 -162 182 -162q195 0 234 268l59 -2q-25 -170 -88 -245q-78 -92 -236 -93q-369 0 -368 533zM176 1114l199 350h127l196 -350h-73l-187 209l-186 -209h-76zM268 584h328v63 q0 293 -158 293q-164 0 -170 -356z" />
<glyph unicode="&#xeb;" horiz-adv-x="862" d="M76 510q0 203 82 336q100 156 291 155q342 0 342 -471v-16h-523v-31q0 -184 25 -272q47 -162 182 -162q195 0 234 268l59 -2q-25 -170 -88 -245q-78 -92 -236 -93q-369 0 -368 533zM180 1280q0 43 25.5 80t66.5 37t68 -37t27 -80t-27 -80t-68 -37t-66.5 37t-25.5 80z M268 584h328v63q0 293 -158 293q-164 0 -170 -356zM510 1280q0 43 26.5 80t67.5 37t67.5 -37t26.5 -80q0 -41 -26.5 -79t-67.5 -38t-67.5 37t-26.5 80z" />
<glyph unicode="&#xec;" horiz-adv-x="530" d="M-12 1386q0 29 17.5 59t43.5 30q43 2 111 -91l202 -270h-79l-254 203q-41 33 -41 69zM47 -2v61q131 0 131 76v713q0 63 -131 70v61h307v-842q0 -76 133 -76v-63q-106 6 -219 6t-221 -6z" />
<glyph unicode="&#xed;" horiz-adv-x="530" d="M47 0v61q131 0 131 76v713q0 63 -131 70v61h307v-842q0 -76 133 -76v-63q-106 6 -219 6t-221 -6zM139 1114l219 303q45 61 82 62q33 0 51.5 -26.5t18.5 -59.5q0 -41 -47 -80l-244 -199h-80z" />
<glyph unicode="&#xee;" horiz-adv-x="530" d="M2 1114l199 350h127l196 -350h-73l-187 209l-186 -209h-76zM47 -2v61q131 0 131 76v713q0 63 -131 70v61h307v-842q0 -76 133 -76v-63q-106 6 -219 6t-221 -6z" />
<glyph unicode="&#xef;" horiz-adv-x="530" d="M-6 1280q0 43 26.5 80t67.5 37t66.5 -37t25.5 -80t-25.5 -80t-66.5 -37t-67.5 37t-26.5 80zM47 -2v61q131 0 131 76v713q0 63 -131 70v61h307v-842q0 -76 133 -76v-63q-106 6 -219 6t-221 -6zM324 1280q0 43 26.5 80t69.5 37q41 0 67.5 -37t26.5 -80q0 -41 -26.5 -79 t-67.5 -38q-43 0 -69.5 37t-26.5 80z" />
<glyph unicode="&#xf0;" horiz-adv-x="923" d="M78 487q0 215 82 351q100 164 303 163q55 0 102 -12q-102 182 -297 266l-51 -86l-63 39l55 86q-45 23 -90 31l22 51q53 -8 107 -22l43 69l63 -24l-39 -66q276 -96 416 -348q125 -229 113 -536q-10 -203 -92 -324q-98 -147 -289 -148q-201 0 -301 162q-84 133 -84 348z M272 494q0 -205 17 -279q39 -174 174 -174q133 0 172 174q18 78 18 279q0 197 -18 274q-41 170 -172 170q-133 0 -172 -170q-18 -76 -19 -274z" />
<glyph unicode="&#xf1;" horiz-adv-x="1015" d="M33 -2v61q135 6 135 76v709q0 70 -135 76v59h305v-145h2q109 168 270 167q141 0 197 -96q43 -74 43 -225v-545q0 -74 127 -74v-63q-102 6 -213 6t-213 -6v63q123 4 123 74v524q0 111 -19 162q-31 88 -120 88q-193 0 -193 -315v-459q0 -74 121 -74v-63q-184 10 -430 0z M213 1163q35 236 178 236q43 0 125 -48t123 -48q29 0 51.5 32.5t28.5 65.5h57q-35 -240 -178 -240q-45 0 -129 50.5t-119 50.5q-66 0 -80 -99h-57z" />
<glyph unicode="&#xf2;" horiz-adv-x="923" d="M78 487q0 215 82 351q100 164 303 163q201 0 301 -163q80 -136 80 -351t-82 -348q-98 -162 -299 -162t-301 162q-84 133 -84 348zM184 1389q0 29 16.5 57.5t43.5 28.5q43 2 110 -91l201 -270h-78l-252 201q-41 33 -41 74zM272 494q0 -205 17 -279q39 -174 174 -174 q133 0 172 174q18 78 18 279q0 197 -18 274q-41 170 -172 170q-133 0 -172 -170q-18 -76 -19 -274z" />
<glyph unicode="&#xf3;" horiz-adv-x="923" d="M78 487q0 215 82 351q100 164 303 163q201 0 301 -163q80 -136 80 -351t-82 -348q-98 -162 -299 -162t-301 162q-84 133 -84 348zM272 494q0 -205 17 -279q39 -174 174 -174q133 0 172 174q18 78 18 279q0 197 -18 274q-41 170 -172 170q-133 0 -172 -170 q-18 -76 -19 -274zM367 1114l223 303q45 61 78 62q69 0 69 -84q0 -43 -47 -82l-244 -199h-79z" />
<glyph unicode="&#xf4;" horiz-adv-x="923" d="M78 487q0 215 82 351q100 164 303 163q201 0 301 -163q80 -136 80 -351t-82 -348q-98 -162 -299 -162t-301 162q-84 133 -84 348zM195 1114l198 350h129l195 -350h-74l-186 209l-187 -209h-75zM272 494q0 -205 17 -279q39 -174 174 -174q133 0 172 174q18 78 18 279 q0 197 -18 274q-41 170 -172 170q-133 0 -172 -170q-18 -76 -19 -274z" />
<glyph unicode="&#xf5;" horiz-adv-x="923" d="M78 487q0 215 82 351q100 164 303 163q201 0 301 -163q80 -136 80 -351t-82 -348q-98 -162 -299 -162t-301 162q-84 133 -84 348zM188 1163q31 236 179 236q43 0 124.5 -48t120.5 -48q31 0 53.5 32.5t28.5 65.5h58q-35 -240 -179 -240q-47 0 -129 50.5t-118 50.5 q-66 0 -80 -99h-58zM272 494q0 -205 17 -279q39 -174 174 -174q133 0 172 174q18 78 18 279q0 197 -18 274q-41 170 -172 170q-133 0 -172 -170q-18 -76 -19 -274z" />
<glyph unicode="&#xf6;" horiz-adv-x="923" d="M78 487q0 215 82 351q100 164 303 163q201 0 301 -163q80 -136 80 -351t-82 -348q-98 -162 -299 -162t-301 162q-84 133 -84 348zM213 1280q0 43 24.5 80t65.5 37t67.5 -37t26.5 -80t-26.5 -80t-67.5 -37t-65.5 37t-24.5 80zM272 494q0 -205 17 -279q39 -174 174 -174 q133 0 172 174q18 78 18 279q0 197 -18 274q-41 170 -172 170q-133 0 -172 -170q-18 -76 -19 -274zM541 1280q0 43 26.5 80t69.5 37q41 0 66.5 -37t25.5 -80t-25.5 -80t-66.5 -37q-43 0 -69.5 37t-26.5 80z" />
<glyph unicode="&#xf8;" horiz-adv-x="923" d="M55 -20l109 155q-86 131 -86 352q0 215 82 351q100 164 303 163q147 0 246 -92l106 152l45 -49l-110 -152q94 -135 94 -373q0 -215 -82 -348q-98 -162 -301 -162q-156 0 -256 103l-107 -152zM272 494q0 -135 7 -203l346 508q-39 139 -162 139q-131 0 -172 -170 q-18 -78 -19 -274zM297 201q37 -160 168 -160q133 0 172 174q18 76 18 279q0 129 -10 221z" />
<glyph unicode="&#xf9;" horiz-adv-x="1015" d="M33 920v59h307v-668q0 -111 18 -159q31 -84 119 -84q195 0 195 344v436q0 72 -131 72v59h305v-846q0 -72 131 -72v-63q33 -2 -303 -2v151l-4 -2q-82 -168 -262 -168q-242 0 -242 287v584q0 72 -133 72zM199 1389q0 29 17 56.5t42 27.5q2 0 34 -7.5t157 -175.5 q89 -125 120 -176h-77l-252 201q-41 33 -41 74z" />
<glyph unicode="&#xfa;" horiz-adv-x="1015" d="M33 920v59h307v-668q0 -111 18 -159q31 -84 119 -84q195 0 195 344v436q0 72 -131 72v59h305v-846q0 -72 131 -72v-63q33 -2 -303 -2v151l-4 -2q-82 -168 -262 -168q-242 0 -242 287v584q0 72 -133 72zM414 1114l221 303q45 61 82 62q67 0 67 -86q0 -43 -45 -80 l-245 -199h-80z" />
<glyph unicode="&#xfb;" horiz-adv-x="1015" d="M33 920v59h307v-668q0 -111 18 -159q31 -84 119 -84q195 0 195 344v436q0 72 -131 72v59h305v-846q0 -72 131 -72v-63q33 -2 -303 -2v151l-4 -2q-82 -168 -262 -168q-242 0 -242 287v584q0 72 -133 72zM233 1114l197 350h127l201 -350h-78l-184 209l-189 -209h-74z" />
<glyph unicode="&#xfc;" horiz-adv-x="1015" d="M33 920v59h307v-668q0 -111 18 -159q31 -84 119 -84q195 0 195 344v436q0 72 -131 72v59h305v-846q0 -72 131 -72v-63q33 -2 -303 -2v151l-4 -2q-82 -168 -262 -168q-242 0 -242 287v584q0 72 -133 72zM238 1280q0 43 24.5 80t65.5 37q43 0 69.5 -37t26.5 -80t-26.5 -80 t-69.5 -37q-41 0 -65.5 37t-24.5 80zM567 1280q0 43 27 80t68 37t66.5 -37t25.5 -80t-26 -80t-66 -37q-41 0 -68 37t-27 80z" />
<glyph unicode="&#xfd;" horiz-adv-x="886" d="M10 922v59h430v-59q-102 -6 -102 -56q-8 -25 182 -633q162 627 162 639q0 49 -113 50v59h303v-59q-106 -18 -129 -95l-256 -888q-57 -199 -90 -265q-80 -156 -200 -155q-68 0 -107 48t-39 116q0 37 19.5 65.5t54.5 28.5q49 0 73.5 -80t67.5 -80q88 0 152 258q4 25 10 74 l-281 887q-27 82 -137 86zM440 1114l222 303q45 61 81 62q68 0 68 -84q0 -43 -47 -82l-244 -199h-80z" />
<glyph unicode="&#xfe;" horiz-adv-x="991" d="M31 -420q66 2 88 10q49 16 49 64v1704q0 76 -131 76v61h307v-643q72 150 242 149q315 0 315 -503q0 -520 -344 -521q-131 0 -211 119h-2v-442q0 -76 143 -76v-61q-113 4 -227 4q-117 0 -229 -4v63zM344 336q0 -119 43 -197q47 -88 139 -88q127 0 168 176q18 86 19 277 q0 174 -21 260q-43 162 -164 162q-94 0 -143 -95q-41 -76 -41 -182v-313z" />
<glyph unicode="&#xff;" horiz-adv-x="886" d="M10 922v59h430v-59q-102 -6 -102 -56q-8 -25 182 -633q162 627 162 639q0 49 -113 50v59h303v-59q-106 -18 -129 -95l-256 -888q-57 -199 -90 -265q-80 -156 -200 -155q-68 0 -107 48t-39 116q0 37 19.5 65.5t54.5 28.5q49 0 73.5 -80t67.5 -80q88 0 152 258q4 25 10 74 l-281 887q-27 82 -137 86zM195 1280q0 45 24.5 81t67.5 36t67.5 -36t24.5 -81t-23 -78q-27 -39 -69 -39q-43 0 -70 39q-23 33 -22 78zM524 1280q0 43 27 80t67 37q41 0 68 -37t27 -80q0 -41 -27 -79t-68 -38t-67.5 37t-26.5 80z" />
<glyph unicode="&#x152;" horiz-adv-x="1812" d="M82 723q0 743 561 743q31 0 92.5 -13t89.5 -13q84 0 289 -2q190 -2 295 -2q162 0 285 6l2 -404h-70q-23 213 -76 271q-61 63 -266 63h-164v-588q23 -2 68 -2q129 0 172 64q35 51 35 190h63v-587h-63q-4 139 -25 182q-33 70 -153 76q-20 4 -97 0v-635h236q168 0 233 112 q43 76 62 271h61v-457q-43 2 -387 2h-285q-70 0 -201.5 -11.5t-197.5 -11.5q-303 0 -444 232q-115 188 -115 514zM303 723q0 -281 45 -426q78 -250 295 -250q111 0 193 57q94 66 94 172v891q0 106 -94 172q-82 57 -193 58q-217 0 -295 -248q-45 -145 -45 -426z" />
<glyph unicode="&#x153;" horiz-adv-x="1398" d="M78 502q0 205 84 340q100 160 293 159q184 0 276 -145q98 145 258 145q332 0 336 -485h-510v-31q0 -184 27 -274q47 -162 186 -162q205 0 236 268h61q-25 -174 -88 -249q-78 -90 -242 -91q-190 0 -270 146q-84 -145 -276 -146q-201 0 -295 170q-76 137 -76 355zM274 498 q0 -199 17 -277q37 -178 164 -178q131 0 168 176q16 76 16 279q0 197 -16 270q-39 170 -168 170q-127 0 -164 -170q-16 -76 -17 -270zM815 584h322q0 145 -17 217q-35 137 -133 137q-106 0 -145 -133q-20 -72 -27 -221z" />
<glyph unicode="&#x178;" horiz-adv-x="1099" d="M4 1442q131 -6 266 -6q133 0 265 6v-66q-43 -2 -86 -6q-70 -8 -70 -27q0 -6 51 -118l209 -457l182 434q57 137 58 141q0 35 -140 35v64q86 -6 179 -6q90 0 176 6v-64q-127 -23 -174 -125l-211 -462q-53 -117 -54 -144v-512q0 -72 164 -72v-65q-127 6 -258 6 q-133 0 -260 -6v65q164 0 164 72v498q0 49 -62 176l-194 401q-74 154 -203 168zM332 1712q0 43 25.5 80t66.5 37t67.5 -37t26.5 -80t-26.5 -80t-67.5 -37t-66.5 37t-25.5 80zM664 1712q0 43 26.5 80t67.5 37t66.5 -37t25.5 -80q0 -41 -25 -76q-27 -41 -67 -41 q-41 0 -67.5 37t-26.5 80z" />
<glyph unicode="&#x2c6;" horiz-adv-x="495" d="M-14 1114l198 350h129l197 -350h-78l-184 209l-189 -209h-73z" />
<glyph unicode="&#x2dc;" horiz-adv-x="495" d="M-35 1163q37 236 178 236q43 0 126 -48t124 -48q31 0 56 34q18 29 22 64h59q-35 -240 -180 -240q-47 0 -130 50.5t-118 50.5q-33 0 -53 -32t-24 -67h-60z" />
<glyph unicode="&#x2000;" horiz-adv-x="969" />
<glyph unicode="&#x2001;" horiz-adv-x="1939" />
<glyph unicode="&#x2002;" horiz-adv-x="969" />
<glyph unicode="&#x2003;" horiz-adv-x="1939" />
<glyph unicode="&#x2004;" horiz-adv-x="646" />
<glyph unicode="&#x2005;" horiz-adv-x="484" />
<glyph unicode="&#x2006;" horiz-adv-x="323" />
<glyph unicode="&#x2007;" horiz-adv-x="323" />
<glyph unicode="&#x2008;" horiz-adv-x="242" />
<glyph unicode="&#x2009;" horiz-adv-x="387" />
<glyph unicode="&#x200a;" horiz-adv-x="107" />
<glyph unicode="&#x2010;" horiz-adv-x="589" d="M72 414v159h446v-159h-446z" />
<glyph unicode="&#x2011;" horiz-adv-x="589" d="M72 414v159h446v-159h-446z" />
<glyph unicode="&#x2012;" horiz-adv-x="589" d="M72 414v159h446v-159h-446z" />
<glyph unicode="&#x2013;" horiz-adv-x="839" d="M0 422v137h840v-137h-840z" />
<glyph unicode="&#x2014;" horiz-adv-x="1617" d="M0 422v137h1618v-137h-1618z" />
<glyph unicode="&#x2018;" horiz-adv-x="423" d="M82 1065q0 254 215 397l27 -51q-154 -109 -158 -274q8 -8 24 -9q37 4 25 5q49 0 78 -41t29 -93q0 -55 -27 -96q-31 -49 -82 -49q-70 0 -104 76q-27 57 -27 135z" />
<glyph unicode="&#x2019;" horiz-adv-x="423" d="M98 907q154 104 160 273q-8 4 -55 4t-76 43t-29 90q0 55 29 100t82 45q70 0 104 -76q27 -57 27 -135q0 -258 -217 -397z" />
<glyph unicode="&#x201a;" horiz-adv-x="423" d="M96 129q0 57 29 101t82 44q70 0 104 -73q27 -57 27 -135q0 -256 -217 -398l-23 53q156 109 156 277q-78 4 -113 27q-45 29 -45 104z" />
<glyph unicode="&#x201c;" horiz-adv-x="786" d="M84 1067q0 258 217 395l23 -51q-156 -113 -156 -272q14 -14 20 -15l10 4q9 5 23 5q47 0 75 -42.5t28 -91.5q0 -55 -27 -96q-31 -49 -84 -49q-68 0 -102 76q-27 59 -27 137zM440 1067q0 260 215 395l25 -51q-156 -111 -158 -274q10 -10 29 -7q33 4 31 5q43 0 69.5 -44 t26.5 -92q0 -55 -27 -96q-29 -49 -82 -49q-70 0 -102 76q-27 57 -27 137z" />
<glyph unicode="&#x201d;" horiz-adv-x="786" d="M104 909q158 102 158 273q-4 2 -51 2t-77 41t-30 92q0 55 30 100t83 45q68 0 102 -76q27 -59 27 -135q0 -258 -217 -397zM461 907q158 109 157 273q-8 4 -54 4t-74.5 43t-28.5 90q0 55 28.5 100t81.5 45q68 0 103 -76q26 -57 26 -135q0 -254 -215 -397z" />
<glyph unicode="&#x201e;" horiz-adv-x="786" d="M98 129q0 59 31 102t88 43q66 0 98 -75q25 -57 25 -133q0 -262 -217 -398l-25 53q158 111 156 275q-25 2 -74 10q-82 23 -82 123zM455 129q0 59 31.5 102t91.5 43q63 0 94 -77q24 -57 24 -131q0 -260 -219 -398l-22 53q160 113 157 275q-25 2 -75 8q-37 10 -59.5 47 t-22.5 78z" />
<glyph unicode="&#x2022;" horiz-adv-x="894" d="M172 721q0 129 72 233q82 115 205 115t202 -115q72 -104 72 -233q0 -131 -70 -234q-80 -119 -204 -118q-125 0 -205 116q-72 104 -72 236z" />
<glyph unicode="&#x2026;" horiz-adv-x="1617" d="M164 127q0 55 27.5 101t78.5 46t80 -46t29 -101t-27 -96q-29 -49 -82 -49q-51 0 -82 49q-25 41 -24 96zM700 127q0 55 29 101t82 46q51 0 80 -46t29 -101t-27 -96q-29 -49 -82 -49t-84 49q-27 41 -27 96zM1241 127q0 53 27 96q29 51 80 51q53 0 81.5 -46t28.5 -101 q0 -57 -26 -98q-31 -47 -84 -47q-51 0 -82 49q-25 41 -25 96z" />
<glyph unicode="&#x202f;" horiz-adv-x="387" />
<glyph unicode="&#x2039;" horiz-adv-x="444" d="M57 457v67l273 346l49 -20l-172 -363l174 -358l-49 -20z" />
<glyph unicode="&#x203a;" horiz-adv-x="444" d="M55 127l174 362l-159 318l45 51l264 -336v-67l-273 -349z" />
<glyph unicode="&#x205f;" horiz-adv-x="484" />
<glyph unicode="&#x20ac;" d="M51 516l23 86h78v55v43h-101l25 86h78q29 588 383 588q129 0 206 -49q96 -61 97 -182q0 -53 -13.5 -76t-60.5 -23q-68 0 -78 70q-6 63 -12 127q-25 70 -127 70q-123 0 -170 -158q-33 -113 -35 -367h352l-24 -86h-328v-98h301l-22 -86h-277q12 -469 221 -469q111 0 164 84 q37 59 57 186h60q-25 -170 -86 -245q-76 -94 -236 -95q-334 0 -370 539h-105z" />
<glyph unicode="&#x2122;" horiz-adv-x="1914" d="M33 1167l14 199h688l15 -199l-33 -2q-6 102 -84 133q-41 14 -170 17v-608q0 -57 22.5 -76t81.5 -21v-37h-350v37q59 4 80.5 21.5t21.5 73.5v610q-129 -2 -167 -17q-74 -29 -84 -133zM815 1329v37h258l273 -580l262 580h254v-37q-59 0 -80 -14q-27 -20 -27 -78v-530 q0 -59 22.5 -77t84.5 -20v-37h-363v37q63 2 84 17q29 18 29 78v528l-291 -660h-35l-299 639l-2 -505q0 -68 27 -84q20 -12 90 -13v-37h-285v37q59 0 80 15q29 20 29 80v520q0 68 -20.5 86t-90.5 18z" />
<glyph unicode="&#xe000;" horiz-adv-x="983" d="M0 0v983h983v-983h-983z" />
</font>
</defs>
</svg>
